<?xml version="1.0" encoding="UTF-8"?>
<svg version="1.1" xmlns="http://www.w3.org/2000/svg" width="512" height="512">
<path d="M0 0 C0.97088562 0.00215515 1.94177124 0.0043103 2.94207764 0.00653076 C17.27751026 0.05757173 31.28525803 0.44028152 45.375 3.3125 C46.40109375 3.51649414 47.4271875 3.72048828 48.484375 3.93066406 C86.28330967 11.62256813 121.28129601 26.30484892 152.375 49.3125 C153.26058594 49.96484619 153.26058594 49.96484619 154.1640625 50.63037109 C163.86850769 57.84725062 172.68066441 65.92127895 181.375 74.3125 C182.31601562 75.21226563 183.25703125 76.11203125 184.2265625 77.0390625 C190.10004639 82.76707311 195.31043947 88.86432242 200.375 95.3125 C201.16648437 96.29863281 201.95796875 97.28476563 202.7734375 98.30078125 C238.38152372 143.40061285 256.91678645 198.62937466 256.6875 255.9375 C256.68534485 256.90838562 256.6831897 257.87927124 256.68096924 258.87957764 C256.62992827 273.21501026 256.24721848 287.22275803 253.375 301.3125 C253.17100586 302.33859375 252.96701172 303.3646875 252.75683594 304.421875 C244.75760142 343.73106818 229.22099906 380.66558879 204.375 412.3125 C203.73046875 413.15039062 203.0859375 413.98828125 202.421875 414.8515625 C190.01509817 430.73828893 175.44655698 446.11650922 159.375 458.3125 C158.80813477 458.7451416 158.24126953 459.1777832 157.65722656 459.62353516 C149.75939793 465.62563299 141.73110492 471.28499621 133.14746094 476.27929688 C131.91997097 476.99482546 130.69692798 477.71801708 129.47753906 478.44726562 C90.39339215 501.75660068 46.04020092 512.80620344 0.75 512.625 C-0.22088562 512.62284485 -1.19177124 512.6206897 -2.19207764 512.61846924 C-16.52751026 512.56742827 -30.53525803 512.18471848 -44.625 509.3125 C-46.16414063 509.00650879 -46.16414063 509.00650879 -47.734375 508.69433594 C-97.20379547 498.62754332 -141.04324473 476.15380171 -177.625 441.3125 C-178.22393066 440.74225098 -178.82286133 440.17200195 -179.43994141 439.58447266 C-187.83046225 431.53606853 -195.47389008 423.25611876 -202.41357422 413.92529297 C-203.54310798 412.42152432 -204.70971241 410.94579997 -205.87890625 409.47265625 C-216.66716486 395.71231924 -225.31610073 380.16652187 -232.625 364.3125 C-232.9869043 363.53358398 -233.34880859 362.75466797 -233.72167969 361.95214844 C-249.06257128 328.58930576 -256.0839738 293.29733352 -255.9375 256.6875 C-255.93534485 255.71661438 -255.9331897 254.74572876 -255.93096924 253.74542236 C-255.87992827 239.40998974 -255.49721848 225.40224197 -252.625 211.3125 C-252.42100586 210.28640625 -252.21701172 209.2603125 -252.00683594 208.203125 C-244.31493187 170.40419033 -229.63265108 135.40620399 -206.625 104.3125 C-205.97265381 103.42691406 -205.97265381 103.42691406 -205.30712891 102.5234375 C-198.09024938 92.81899231 -190.01622105 84.00683559 -181.625 75.3125 C-180.72523438 74.37148437 -179.82546875 73.43046875 -178.8984375 72.4609375 C-173.17042689 66.58745361 -167.07317758 61.37706053 -160.625 56.3125 C-159.63886719 55.52101562 -158.65273437 54.72953125 -157.63671875 53.9140625 C-112.53688715 18.30597628 -57.30812534 -0.22928645 0 0 Z " fill="#0E7886" transform="translate(255.625,-0.3125)"/>
<path d="M0 0 C0.97088562 0.00215515 1.94177124 0.0043103 2.94207764 0.00653076 C17.27751026 0.05757173 31.28525803 0.44028152 45.375 3.3125 C46.40109375 3.51649414 47.4271875 3.72048828 48.484375 3.93066406 C86.28330967 11.62256813 121.28129601 26.30484892 152.375 49.3125 C153.26058594 49.96484619 153.26058594 49.96484619 154.1640625 50.63037109 C163.86850769 57.84725062 172.68066441 65.92127895 181.375 74.3125 C182.31601562 75.21226563 183.25703125 76.11203125 184.2265625 77.0390625 C190.10004639 82.76707311 195.31043947 88.86432242 200.375 95.3125 C201.16648437 96.29863281 201.95796875 97.28476563 202.7734375 98.30078125 C238.38152372 143.40061285 256.91678645 198.62937466 256.6875 255.9375 C256.68534485 256.90838562 256.6831897 257.87927124 256.68096924 258.87957764 C256.62992827 273.21501026 256.24721848 287.22275803 253.375 301.3125 C253.17100586 302.33859375 252.96701172 303.3646875 252.75683594 304.421875 C247.7272132 329.13804147 240.39364561 354.50700328 227.375 376.3125 C227.045 376.3125 226.715 376.3125 226.375 376.3125 C226.3656543 375.00917725 226.35630859 373.70585449 226.34667969 372.36303711 C226.30602317 367.4068296 226.24007971 362.45119505 226.16748047 357.49536133 C226.13970016 355.37304184 226.11827864 353.25062713 226.10400391 351.12817383 C225.71811456 296.91072054 205.47235956 243.70358458 168.5859375 203.7109375 C167.09109211 202.08932077 165.61748089 200.44791106 164.1640625 198.7890625 C150.02741283 182.66832164 132.69843021 170.24745029 114.375 159.3125 C113.52421875 158.68601563 112.6734375 158.05953125 111.796875 157.4140625 C109.28823183 155.97151228 109.28823183 155.97151228 106.0625 157.125 C105.175625 157.516875 104.28875 157.90875 103.375 158.3125 C103.93767578 160.09140625 103.93767578 160.09140625 104.51171875 161.90625 C107.81935329 172.36884317 111.10943995 182.83669896 114.375 193.3125 C117.48410487 193.3125 118.754834 191.3652232 121 189.3125 C121.81726563 188.57 122.63453125 187.8275 123.4765625 187.0625 C124.10304688 186.485 124.72953125 185.9075 125.375 185.3125 C129.16495513 186.90126339 131.74675677 189.28639547 134.6875 192.125 C135.59113281 192.97707031 136.49476563 193.82914063 137.42578125 194.70703125 C139.375 197.3125 139.375 197.3125 139.35546875 199.890625 C136.252626 207.55501745 129.22647018 212.21093962 122.375 216.3125 C124.10748117 223.95116698 126.24364309 231.12786384 129.375 238.3125 C129.89449219 237.75820312 130.41398437 237.20390625 130.94921875 236.6328125 C131.64660156 235.90835938 132.34398437 235.18390625 133.0625 234.4375 C133.74699219 233.71820313 134.43148438 232.99890625 135.13671875 232.2578125 C137.375 230.3125 137.375 230.3125 142.375 228.3125 C146.665 232.6025 150.955 236.8925 155.375 241.3125 C150.85054303 250.36141394 144.87661109 255.0495979 136.375 260.3125 C137.63217512 266.44700701 139.24295716 272.3628636 141.1875 278.3125 C145.22821934 290.89301199 148.95905866 303.54766657 152.375 316.3125 C150.065 318.6225 147.755 320.9325 145.375 323.3125 C141.49178659 321.37089329 140.65989563 320.7426279 138.37890625 317.375 C137.82710693 316.5718335 137.27530762 315.76866699 136.70678711 314.94116211 C136.12292236 314.07370361 135.53905762 313.20624512 134.9375 312.3125 C133.68096425 310.47959283 132.42312459 308.64757894 131.1640625 306.81640625 C130.53016602 305.89102051 129.89626953 304.96563477 129.24316406 304.01220703 C126.49729578 300.04411876 123.6582704 296.14673054 120.8125 292.25 C116.3635356 286.13756849 112.05138738 279.94725229 107.8125 273.6875 C103.2382292 266.93349691 98.47834191 260.36589513 93.54052734 253.87402344 C90.01314215 249.21848416 86.7469016 244.44091156 83.55078125 239.55078125 C80.83376564 235.50696447 77.98736561 231.56671424 75.125 227.625 C70.58631613 221.36681475 66.05012715 215.10745625 61.5625 208.8125 C61.04075195 208.08844971 60.51900391 207.36439941 59.98144531 206.6184082 C56.375 201.5423303 56.375 201.5423303 56.375 199.3125 C52.01423455 201.71337086 48.46683137 204.67211188 44.75 207.9375 C40.44900148 211.67529266 36.12540308 215.36163565 31.6875 218.9375 C26.94522513 222.78711137 22.42571039 226.83962671 17.9296875 230.97265625 C15.74802185 232.97084848 13.54488691 234.93398889 11.3125 236.875 C6.61330984 240.96166843 1.99719576 245.1391973 -2.625 249.3125 C-4.31211808 250.83375701 -5.99961446 252.35459457 -7.6875 253.875 C-8.90566406 254.98681641 -8.90566406 254.98681641 -10.1484375 256.12109375 C-11.81972931 257.59994975 -13.53570884 259.02958306 -15.2890625 260.41015625 C-16.12179688 261.07917969 -16.95453125 261.74820312 -17.8125 262.4375 C-18.56917969 263.01757812 -19.32585937 263.59765625 -20.10546875 264.1953125 C-21.96627035 266.31061277 -21.96627035 266.31061277 -21.39233398 269.48925781 C-20.60593841 273.40747438 -19.39405265 276.93024969 -17.8671875 280.6015625 C-17.3187472 281.96864443 -16.77057806 283.33583517 -16.22265625 284.703125 C-15.36016996 286.8290478 -14.49356872 288.953151 -13.62158203 291.07519531 C-12.7756514 293.14217944 -11.94566158 295.2150322 -11.1171875 297.2890625 C-10.85267792 297.91938385 -10.58816833 298.5497052 -10.31564331 299.1991272 C-8.8228033 302.96226598 -8.29428554 305.44643786 -9.625 309.3125 C-11.25390625 311.55078125 -11.25390625 311.55078125 -13.1875 313.625 C-13.82816406 314.32238281 -14.46882812 315.01976562 -15.12890625 315.73828125 C-15.62261719 316.25777344 -16.11632812 316.77726562 -16.625 317.3125 C-20.81871309 313.56557475 -23.7003942 309.0088223 -26.8125 304.375 C-27.38766357 303.53412842 -27.96282715 302.69325684 -28.55541992 301.8269043 C-31.17886792 297.98564918 -33.76037686 294.13572371 -36.1953125 290.171875 C-39.54237742 284.19528677 -39.54237742 284.19528677 -44.953125 280.5234375 C-47.41374075 280.4081599 -47.41374075 280.4081599 -50.625 281.3125 C-50.40457031 280.15621094 -50.18414062 278.99992187 -49.95703125 277.80859375 C-49.96609464 274.63989437 -50.33967616 273.60784274 -52.57177734 271.29736328 C-55.41395575 269.18830951 -58.32019783 267.26511793 -61.3125 265.375 C-62.35929932 264.68277344 -63.40609863 263.99054688 -64.48461914 263.27734375 C-66.56682968 261.90112291 -68.65584983 260.53514274 -70.75195312 259.18017578 C-74.41124497 256.80138732 -77.99155682 254.3209793 -81.5625 251.8125 C-83.24979881 250.64554237 -84.93720072 249.47873367 -86.625 248.3125 C-85.83996094 247.53648437 -85.05492187 246.76046875 -84.24609375 245.9609375 C-81.65822838 243.43062423 -81.65822838 243.43062423 -79.6875 240.9375 C-77.625 239.3125 -77.625 239.3125 -74.94555664 239.54077148 C-71.28880349 240.39063522 -67.89941679 241.622753 -64.43359375 243.03515625 C-63.06319771 243.57889367 -61.69275355 244.12250984 -60.32226562 244.66601562 C-58.18612919 245.52140505 -56.05115697 246.3795762 -53.91723633 247.24047852 C-51.84216876 248.07512792 -49.76317567 248.89933234 -47.68359375 249.72265625 C-46.73340614 250.1116787 -46.73340614 250.1116787 -45.76402283 250.50856018 C-42.28045352 251.88263393 -39.36960359 252.88998979 -35.625 252.3125 C-33.8036061 251.10097543 -33.8036061 251.10097543 -32.3203125 249.3125 C-31.74047607 248.67658936 -31.16063965 248.04067871 -30.56323242 247.38549805 C-29.96486572 246.70140869 -29.36649902 246.01731934 -28.75 245.3125 C-28.12649658 244.6213208 -27.50299316 243.9301416 -26.8605957 243.21801758 C-25.10127724 241.26150433 -23.36023991 239.29036354 -21.625 237.3125 C-20.55958984 236.11173828 -20.55958984 236.11173828 -19.47265625 234.88671875 C-18.38927087 233.65548313 -17.31212611 232.41871988 -16.2421875 231.17578125 C-14.33920856 228.98321856 -12.38902596 226.83695653 -10.4375 224.6875 C-6.2294793 220.02785187 -2.14570283 215.27091303 1.92578125 210.49243164 C4.91934323 206.98673764 7.9576419 203.53329973 11.0625 200.125 C14.96438692 195.82726948 18.6462462 191.3785752 22.29296875 186.86328125 C24.11073013 184.63626777 25.97368778 182.46792555 27.875 180.3125 C30.50658865 177.52506629 30.50658865 177.52506629 31.375 174.3125 C30.70082031 174.09464844 30.02664063 173.87679687 29.33203125 173.65234375 C25.46286922 171.89920957 22.40259782 169.47362467 19.0625 166.875 C13.6121089 162.70989505 8.10984831 158.67028971 2.4375 154.8125 C-3.2820302 150.91922564 -8.97125292 146.98839376 -14.625 143 C-15.3068335 142.52046875 -15.98866699 142.0409375 -16.69116211 141.546875 C-17.34995361 141.08152344 -18.00874512 140.61617187 -18.6875 140.13671875 C-19.34363281 139.68216309 -19.99976563 139.22760742 -20.67578125 138.75927734 C-22.625 137.3125 -22.625 137.3125 -24.48046875 135.58837891 C-27.40124702 132.97699235 -29.42335525 131.41700463 -33.40136719 131.07104492 C-36.53942593 131.28943068 -39.53490328 131.72614389 -42.625 132.3125 C-44.02202148 132.57160156 -44.02202148 132.57160156 -45.44726562 132.8359375 C-48.27945206 133.42204554 -51.07312167 134.0956521 -53.875 134.8125 C-55.41365723 135.20453613 -55.41365723 135.20453613 -56.98339844 135.60449219 C-86.77693674 143.49555735 -114.45598294 157.2139061 -138.625 176.3125 C-139.53636719 177.03050781 -140.44773437 177.74851563 -141.38671875 178.48828125 C-163.92953356 196.59328088 -182.54650826 217.98795836 -196.625 243.3125 C-197.30462272 244.49743299 -197.98431058 245.68232862 -198.6640625 246.8671875 C-211.96735217 270.47876867 -219.41135568 296.68638694 -223.625 323.3125 C-223.79845947 324.17302979 -223.97191895 325.03355957 -224.15063477 325.92016602 C-224.81500693 330.67129894 -224.86108229 335.3874035 -224.94140625 340.1796875 C-224.96218735 341.21441193 -224.98296844 342.24913635 -225.00437927 343.31521606 C-225.0695282 346.60591274 -225.12859809 349.89668617 -225.1875 353.1875 C-225.2307182 355.42448696 -225.27433353 357.66146629 -225.31835938 359.8984375 C-225.42517389 365.36971158 -225.52700337 370.84106126 -225.625 376.3125 C-247.15700664 348.1765469 -255.64518642 303.34714372 -255.828125 268.51953125 C-255.83518463 267.61912613 -255.84224426 266.71872101 -255.84951782 265.79103088 C-256.07709392 228.24683595 -256.07709392 228.24683595 -252.625 211.3125 C-252.42100586 210.28640625 -252.21701172 209.2603125 -252.00683594 208.203125 C-244.31493187 170.40419033 -229.63265108 135.40620399 -206.625 104.3125 C-205.97265381 103.42691406 -205.97265381 103.42691406 -205.30712891 102.5234375 C-198.09024938 92.81899231 -190.01622105 84.00683559 -181.625 75.3125 C-180.72523438 74.37148437 -179.82546875 73.43046875 -178.8984375 72.4609375 C-173.17042689 66.58745361 -167.07317758 61.37706053 -160.625 56.3125 C-159.63886719 55.52101562 -158.65273437 54.72953125 -157.63671875 53.9140625 C-112.53688715 18.30597628 -57.30812534 -0.22928645 0 0 Z " fill="#FE757C" transform="translate(255.625,-0.3125)"/>
<path d="M0 0 C1.0828125 0.37125 1.0828125 0.37125 2.1875 0.75 C2.1875 1.41 2.1875 2.07 2.1875 2.75 C0.2075 3.41 -1.7725 4.07 -3.8125 4.75 C-4.1425 7.06 -4.4725 9.37 -4.8125 11.75 C-4.1525 11.75 -3.4925 11.75 -2.8125 11.75 C-2.8125 13.07 -2.8125 14.39 -2.8125 15.75 C1.33420039 13.37370911 1.33420039 13.37370911 4.1875 9.75 C3.1975 9.42 2.2075 9.09 1.1875 8.75 C1.5 6.375 1.5 6.375 2.1875 3.75 C5.44139988 1.58073341 6.32145957 1.50919951 10.07421875 1.5546875 C11.01201172 1.56113281 11.94980469 1.56757813 12.91601562 1.57421875 C14.38071289 1.59935547 14.38071289 1.59935547 15.875 1.625 C16.86306641 1.63402344 17.85113281 1.64304688 18.86914062 1.65234375 C21.30883765 1.6759157 23.74804697 1.70881978 26.1875 1.75 C26.5175 2.74 26.8475 3.73 27.1875 4.75 C29.50597874 5.4666207 31.84069703 6.13242027 34.1875 6.75 C36.1875 8.75 36.1875 8.75 37.0625 11.1875 C38.32856224 14.07130844 39.56434406 15.0886679 42.1875 16.75 C41.8575 18.07 41.5275 19.39 41.1875 20.75 C38.27267222 21.55967438 36.72636783 21.96845993 33.875 20.8125 C33.318125 20.461875 32.76125 20.11125 32.1875 19.75 C32.5175 22.06 32.8475 24.37 33.1875 26.75 C29.37288362 28.54511359 26.40161291 29.28797186 22.1875 28.75 C20.85416667 27.41666667 19.52083333 26.08333333 18.1875 24.75 C14.54028304 23.94234122 14.54028304 23.94234122 11.1875 23.75 C11.1875 22.76 11.1875 21.77 11.1875 20.75 C11.79078125 20.66363281 12.3940625 20.57726562 13.015625 20.48828125 C18.47032267 19.53960711 18.47032267 19.53960711 22.75 16.125 C23.224375 15.34125 23.69875 14.5575 24.1875 13.75 C21.30121599 12.17445965 18.65407616 11.28723627 15.4375 10.625 C14.63828125 10.45742187 13.8390625 10.28984375 13.015625 10.1171875 C12.41234375 9.99601563 11.8090625 9.87484375 11.1875 9.75 C10.89359375 10.35457031 10.5996875 10.95914063 10.296875 11.58203125 C8.86451943 14.38117681 7.38685665 16.48955011 5.1875 18.75 C1.9375 19.5625 1.9375 19.5625 -0.8125 19.75 C-0.3175 20.20375 0.1775 20.6575 0.6875 21.125 C2.1875 22.75 2.1875 22.75 2.1875 24.75 C0.5375 25.08 -1.1125 25.41 -2.8125 25.75 C-2.3175 27.235 -2.3175 27.235 -1.8125 28.75 C-3.6875 28.4375 -3.6875 28.4375 -5.8125 27.75 C-6.8025 26.265 -6.8025 26.265 -7.8125 24.75 C-7.4825 24.09 -7.1525 23.43 -6.8125 22.75 C-19.17017914 27.26215662 -19.17017914 27.26215662 -29.8125 34.75 C-29.85330783 36.74958364 -29.85504356 38.75045254 -29.8125 40.75 C-24.56271185 43.09565002 -19.28497917 44.98196827 -13.8125 46.75 C-13.8125 49.72 -13.8125 52.69 -13.8125 55.75 C-12.3275 56.245 -12.3275 56.245 -10.8125 56.75 C-10.5959375 54.89375 -10.5959375 54.89375 -10.375 53 C-9.84375 50.74609375 -9.84375 50.74609375 -8.8125 48.75 C-6.78125 47.78515625 -6.78125 47.78515625 -4.375 47.0625 C-1.8842234 46.30932847 -1.8842234 46.30932847 0.1875 44.75 C1.46247227 41.44371598 2.04855224 38.34652735 2.5546875 34.84375 C3.21877438 31.59710304 3.74258874 29.98111857 6.1875 27.75 C8.5625 27.47265625 8.5625 27.47265625 11.1875 27.8125 C12.486875 27.95365234 12.486875 27.95365234 13.8125 28.09765625 C16.49348436 28.83404505 17.55574792 29.51763559 19.1875 31.75 C19.375 34.9375 19.375 34.9375 19.1875 37.75 C20.26 37.440625 21.3325 37.13125 22.4375 36.8125 C25.01722239 36.08157866 27.58546433 35.38899548 30.1875 34.75 C30.29964844 35.87148437 30.29964844 35.87148437 30.4140625 37.015625 C30.96843954 42.62776745 30.96843954 42.62776745 33.65625 47.37109375 C35.45671527 48.58630861 35.45671527 48.58630861 38.1875 49.75 C37.1875 58.32142857 37.1875 58.32142857 36.1875 61.75 C37.1775 62.08 38.1675 62.41 39.1875 62.75 C39.1875 64.73 39.1875 66.71 39.1875 68.75 C35.8875 68.42 32.5875 68.09 29.1875 67.75 C29.1875 63.03093812 30.47504204 61.47962969 33.1875 57.75 C32.506875 58.245 31.82625 58.74 31.125 59.25 C27.59284991 61.05365111 25.10113009 60.98021353 21.1875 60.75 C20.8575 61.74 20.5275 62.73 20.1875 63.75 C19.5275 63.09 18.8675 62.43 18.1875 61.75 C15.61688689 61.10232207 15.61688689 61.10232207 13.1875 60.75 C13.1875 61.41 13.1875 62.07 13.1875 62.75 C14.6725 63.245 14.6725 63.245 16.1875 63.75 C15.8575 66.06 15.5275 68.37 15.1875 70.75 C17.4975 70.75 19.8075 70.75 22.1875 70.75 C21.1875 73.75 21.1875 73.75 19.2265625 74.91796875 C18.42992187 75.25441406 17.63328125 75.59085937 16.8125 75.9375 C16.02101563 76.28167969 15.22953125 76.62585938 14.4140625 76.98046875 C12.1875 77.75 12.1875 77.75 9.1875 77.75 C9.1875 76.76 9.1875 75.77 9.1875 74.75 C7.38716357 75.45749007 5.59738474 76.1918862 3.8125 76.9375 C2.81476563 77.34355469 1.81703125 77.74960938 0.7890625 78.16796875 C-2.34212377 80.07206851 -2.60222899 81.3976564 -3.8125 84.75 C-5.546875 85.90234375 -5.546875 85.90234375 -7.5625 86.6875 C-10.70843109 88.07742955 -12.81472135 89.50449142 -15.1875 92 C-16.05375 92.9075 -16.92 93.815 -17.8125 94.75 C-18.4725 94.75 -19.1325 94.75 -19.8125 94.75 C-19.585625 95.74 -19.35875 96.73 -19.125 97.75 C-19.09765625 99.67578125 -19.09765625 99.67578125 -19.8125 101.75 C-22.38949638 104.10025558 -25.09240752 105.95692407 -28.015625 107.85546875 C-30.71676019 109.68514831 -32.82251769 111.16396167 -34.8125 113.75 C-35.29445275 116.79440135 -35.29445275 116.79440135 -35.0625 120 C-35.02640625 121.07765625 -34.9903125 122.1553125 -34.953125 123.265625 C-34.90671875 124.08546875 -34.8603125 124.9053125 -34.8125 125.75 C-36.4625 125.42 -38.1125 125.09 -39.8125 124.75 C-40.4725 122.44 -41.1325 120.13 -41.8125 117.75 C-43.76939659 117.52857745 -45.72811952 117.3232432 -47.6875 117.125 C-48.77804688 117.00898438 -49.86859375 116.89296875 -50.9921875 116.7734375 C-51.92289063 116.76570313 -52.85359375 116.75796875 -53.8125 116.75 C-54.4725 117.41 -55.1325 118.07 -55.8125 118.75 C-58.59053712 118.8514204 -61.31111992 118.68066925 -64.0859375 118.52734375 C-67.27388226 118.78767735 -68.41393381 119.72653998 -70.8125 121.75 C-71.4725 121.75 -72.1325 121.75 -72.8125 121.75 C-76.53067063 133.18312592 -76.53067063 133.18312592 -74.93359375 144.671875 C-73.65951267 146.67466818 -73.65951267 146.67466818 -70.8125 148.75 C-67.24033304 149.32354142 -67.24033304 149.32354142 -63.8125 147.75 C-62.38713258 146.0065071 -61.25314194 144.19263184 -60.078125 142.2734375 C-58.8125 140.75 -58.8125 140.75 -55.5 140.3125 C-54.613125 140.456875 -53.72625 140.60125 -52.8125 140.75 C-53.50415788 146.16798672 -54.57049248 151.4322785 -55.8125 156.75 C-55.18601563 156.73839844 -54.55953125 156.72679687 -53.9140625 156.71484375 C-52.68816406 156.70130859 -52.68816406 156.70130859 -51.4375 156.6875 C-50.62539062 156.67589844 -49.81328125 156.66429687 -48.9765625 156.65234375 C-46.8125 156.75 -46.8125 156.75 -44.8125 157.75 C-44.4825 163.36 -44.1525 168.97 -43.8125 174.75 C-41.894375 174.729375 -39.97625 174.70875 -38 174.6875 C-34.54913415 174.65039392 -32.09769475 174.65493508 -28.8125 175.75 C-28.3484375 174.3578125 -28.3484375 174.3578125 -27.875 172.9375 C-25.0155293 168.51831801 -21.76522438 167.93366998 -16.8125 166.75 C-16.8125 167.74 -16.8125 168.73 -16.8125 169.75 C-16.090625 169.358125 -15.36875 168.96625 -14.625 168.5625 C-13.2328125 168.1603125 -13.2328125 168.1603125 -11.8125 167.75 C-11.0803125 168.2140625 -10.348125 168.678125 -9.59375 169.15625 C-6.1168093 171.14865422 -3.48219621 171.25141606 0.5 171.4375 C2.38138672 171.53611328 2.38138672 171.53611328 4.30078125 171.63671875 C5.25339844 171.67410156 6.20601563 171.71148437 7.1875 171.75 C7.455625 171.13125 7.72375 170.5125 8 169.875 C9.1875 167.75 9.1875 167.75 12.1875 165.75 C13.1775 166.74 14.1675 167.73 15.1875 168.75 C13.5375 171.06 11.8875 173.37 10.1875 175.75 C10.950625 176.513125 11.71375 177.27625 12.5 178.0625 C15.1875 180.75 15.1875 180.75 16.5 182.5 C18.35096969 184.10089279 18.35096969 184.10089279 22 184.0625 C26.14030282 184.47273184 28.12987648 185.75120077 30.90625 188.80078125 C32.40539224 191.0814885 33.10917046 193.27880048 33.9375 195.875 C35.07194479 199.10380439 35.62944564 200.41007764 38.5859375 202.2109375 C41.27399391 203.27465228 41.27399391 203.27465228 43.9453125 204.03125 C46.1875 204.75 46.1875 204.75 48.1875 206.75 C49.6975946 207.05829909 51.2219023 207.29912331 52.75 207.5 C58.59188343 208.56523489 62.56752533 211.12741294 67.1875 214.75 C68.033125 215.389375 68.87875 216.02875 69.75 216.6875 C72.02302212 219.94879261 71.82734737 221.84693104 71.1875 225.75 C69.80467626 228.21610406 68.27829661 230.46173603 66.59765625 232.734375 C64.20873899 236.14900466 64.07703619 239.12812892 63.94824219 243.1965332 C63.69413841 250.53759129 63.19141583 257.35185072 59.1875 263.75 C56.89225806 265.66270161 55.00584924 266.51032932 52.16015625 267.34375 C49.70412367 268.23200772 48.10387859 268.95557278 46.1875 270.75 C45.29143531 273.9579116 44.98520869 277.0334274 44.67578125 280.34765625 C43.9460399 285.43249399 41.71576728 289.34984252 39.1875 293.75 C38.51263819 295.07920418 37.84321568 296.41124716 37.1875 297.75 C34.5475 297.75 31.9075 297.75 29.1875 297.75 C29.93 298.8328125 29.93 298.8328125 30.6875 299.9375 C32.26669285 302.89848659 32.46928312 304.46253029 32.1875 307.75 C25.4375 310.75 25.4375 310.75 23.1875 310.75 C23.1875 312.73 23.1875 314.71 23.1875 316.75 C17.32532377 318.12312236 13.87127466 317.20752649 8.75 314.375 C7.7134729 313.82634277 7.7134729 313.82634277 6.65600586 313.26660156 C5.20857597 312.49494491 3.76596162 311.71419251 2.328125 310.92480469 C0.29143707 309.80704211 -1.75821993 308.71780529 -3.8125 307.6328125 C-23.04620898 297.31286704 -40.04315145 283.7690888 -55.8125 268.75 C-56.41143066 268.17975098 -57.01036133 267.60950195 -57.62744141 267.02197266 C-66.01796225 258.97356853 -73.66139008 250.69361876 -80.60107422 241.36279297 C-81.73060798 239.85902432 -82.89721241 238.38329997 -84.06640625 236.91015625 C-103.8623032 211.66064905 -103.8623032 211.66064905 -103.98950195 201.40576172 C-104.00233719 200.50236053 -104.01517242 199.59895935 -104.02839661 198.66818237 C-104.03578354 197.68197906 -104.04317047 196.69577576 -104.05078125 195.6796875 C-104.058853 194.65183136 -104.06692474 193.62397522 -104.07524109 192.56497192 C-104.08911172 190.3708058 -104.09982045 188.17661782 -104.10766602 185.98242188 C-104.11901899 183.78346232 -104.13919398 181.58452646 -104.16918945 179.38574219 C-104.44435797 159.19851867 -102.52422395 139.5944967 -96.4375 120.25 C-96.13642334 119.26064453 -95.83534668 118.27128906 -95.52514648 117.25195312 C-91.13844002 103.05375816 -85.71861637 89.9014095 -78.8125 76.75 C-78.22339844 75.60402344 -77.63429688 74.45804687 -77.02734375 73.27734375 C-63.51473643 47.45256576 -43.65081613 23.78209599 -20.8125 5.75 C-19.96945313 5.02039063 -19.12640625 4.29078125 -18.2578125 3.5390625 C-14.70804361 0.94194724 -12.13470729 1.043031 -7.8125 0.75 C-7.8125 1.74 -7.8125 2.73 -7.8125 3.75 C-7.090625 3.069375 -6.36875 2.38875 -5.625 1.6875 C-2.8125 -0.25 -2.8125 -0.25 0 0 Z " fill="#15BBB0" transform="translate(133.8125,172.25)"/>
<path d="M0 0 C1.32763672 1.45849609 1.32763672 1.45849609 2.6796875 3.5234375 C3.18959229 4.2880127 3.69949707 5.05258789 4.22485352 5.84033203 C4.76940186 6.67677246 5.3139502 7.51321289 5.875 8.375 C7.04611261 10.13158647 8.21934356 11.88676222 9.39453125 13.640625 C9.99346191 14.53716797 10.59239258 15.43371094 11.20947266 16.35742188 C13.9093057 20.34201321 16.72694352 24.23634709 19.5625 28.125 C25.28582339 35.99725154 30.91753372 43.92979655 36.51611328 51.89111328 C39.00648774 55.43041149 41.50351848 58.96500813 44 62.5 C46.99154349 66.73599447 49.98178828 70.97286609 52.96484375 75.21484375 C58.67506666 83.32951929 64.43734007 91.40361591 70.25634766 99.44067383 C75.20206176 106.27165026 80.1076059 113.13076946 85 120 C81.50078158 124.3947811 79.21320348 126.62005928 74 129 C73.5771875 129.45632813 73.154375 129.91265625 72.71875 130.3828125 C70.2985086 132.66003963 67.63260797 133.79381439 64.625 135.1875 C63.50351562 135.71730469 62.38203125 136.24710938 61.2265625 136.79296875 C58.17843287 137.93324969 56.20572066 138.270145 53 138 C52.76925781 137.39414062 52.53851563 136.78828125 52.30078125 136.1640625 C48.28421693 125.56768725 48.28421693 125.56768725 42.4296875 115.94140625 C40.67087874 113.55307851 39.93434908 111.00733445 38.94921875 108.234375 C37.22262391 104.17012705 34.84009392 100.38000761 32 97 C30.515 96.505 30.515 96.505 29 96 C30.12145918 98.60574338 31.24699797 101.20959056 32.375 103.8125 C32.69210937 104.55048828 33.00921875 105.28847656 33.3359375 106.04882812 C33.6453125 106.76103516 33.9546875 107.47324219 34.2734375 108.20703125 C34.69761963 109.18893433 34.69761963 109.18893433 35.13037109 110.19067383 C36.07472913 112.26322799 36.07472913 112.26322799 38 115 C38.4021875 116.546875 38.4021875 116.546875 38.8125 118.125 C40.45212003 124.12422988 43.21211424 129.88160716 48.1875 133.75 C51.134829 136.1078632 52.05430664 137.40636524 53 141 C53 141.99 53 142.98 53 144 C53.94359375 143.7834375 53.94359375 143.7834375 54.90625 143.5625 C60.40566619 142.36985553 65.37666943 141.7917285 71 142 C70.49139546 147.29626864 69.15225954 151.44916772 66.6875 156.1875 C66.39166016 156.79013672 66.09582031 157.39277344 65.79101562 158.01367188 C63.96624016 161.60410481 62.00834484 164.32370205 59 167 C60.32 167.33 61.64 167.66 63 168 C63 169.65 63 171.3 63 173 C62.28714844 172.95617187 61.57429687 172.91234375 60.83984375 172.8671875 C54.70529398 172.86819577 54.70529398 172.86819577 49.78125 176.1875 C48.03574612 178.7317938 46.48201414 181.29521617 45 184 C44.34 184.99 43.68 185.98 43 187 C42.65327302 192.37426821 43.13644472 197.25163501 44 202.5625 C46.03747853 215.21553693 46.03747853 215.21553693 43.4375 219.6875 C40.96327852 222.03483833 38.43865662 223.93292648 35.5859375 225.7890625 C33.7068569 227.08797234 33.7068569 227.08797234 32 230 C31.7384116 233.32774753 31.68557457 236.63152136 31.63671875 239.96875 C31 243 31 243 28.5390625 244.62109375 C27.70117188 245.07613281 26.86328125 245.53117188 26 246 C25.05122808 248.13460872 25.05122808 248.13460872 24.6875 250.5625 C22.87448598 257.62807463 18.52235424 263.64459365 12.44140625 267.7109375 C6.20738983 271.00249817 -0.07023692 271.57084255 -7 271 C-8.53680292 269.46319708 -8.41454972 267.75175481 -8.75 265.625 C-9.49115875 261.70349587 -10.59470263 258.50355578 -12.375 254.9375 C-15.02360732 249.4766949 -16.34972815 244.01139336 -17.56787109 238.10131836 C-18.29837222 234.63812685 -19.13278612 231.49795339 -20.59375 228.265625 C-22.44174091 223.97417944 -22.63697835 220.5895107 -22 216 C-21.02936517 213.65429915 -20.03101947 211.31979381 -19 209 C-18.53920435 203.00965657 -19.39570099 196.96745273 -20 191 C-21.36125 191.99 -21.36125 191.99 -22.75 193 C-26 195 -26 195 -30 195 C-30 191 -30 191 -28.6875 189.515625 C-27.125 188.34375 -25.5625 187.171875 -24 186 C-24.98226562 184.78957031 -24.98226562 184.78957031 -25.984375 183.5546875 C-28.67147079 179.52404381 -28.45732504 175.82968356 -28.25 171.125 C-28.23195313 170.34125 -28.21390625 169.5575 -28.1953125 168.75 C-28.14855148 166.83279811 -28.07682003 164.91623285 -28 163 C-28.93972656 162.96132813 -28.93972656 162.96132813 -29.8984375 162.921875 C-30.71570313 162.86515625 -31.53296875 162.8084375 -32.375 162.75 C-33.18710937 162.70359375 -33.99921875 162.6571875 -34.8359375 162.609375 C-37 162 -37 162 -38.12109375 160.01171875 C-38.41113281 159.34785156 -38.70117188 158.68398438 -39 158 C-42.71524352 156.70398482 -44.4557947 156.75566293 -48.0625 158.375 C-48.92488281 158.80039062 -48.92488281 158.80039062 -49.8046875 159.234375 C-53.74617037 160.60898468 -57.87069309 160.58468756 -62.01171875 160.7890625 C-64.89766952 160.85643451 -64.89766952 160.85643451 -67.078125 161.75 C-69 162 -69 162 -71.47265625 160.5234375 C-72.32730469 159.81445312 -73.18195313 159.10546875 -74.0625 158.375 C-74.91972656 157.68148437 -75.77695313 156.98796875 -76.66015625 156.2734375 C-79.02111815 153.9794812 -80.3648063 151.83521489 -82 149 C-83.38323629 147.4263373 -84.77953772 145.86407957 -86.1875 144.3125 C-89.89018354 139.78925839 -90.80888774 136.81312881 -90.37890625 131.03125 C-90 129 -90 129 -89 127 C-88.8475659 123.18914754 -89.01515816 119.92887327 -89.8125 116.1875 C-90.62157942 110.76879704 -87.67850075 106.52286632 -85 102 C-81.18086233 105.60042054 -78.47017881 109.59527569 -75.5859375 113.953125 C-75.06257812 114.62859375 -74.53921875 115.3040625 -74 116 C-73.34 116 -72.68 116 -72 116 C-70.37025792 114.3969921 -70.37025792 114.3969921 -68.8125 112.3125 C-67.98685547 111.28576172 -67.98685547 111.28576172 -67.14453125 110.23828125 C-65.62960654 107.27564691 -66.15428266 106.20273462 -67 103 C-67.8835092 100.54117393 -68.79738837 98.11553895 -69.7578125 95.6875 C-70.30650216 94.26842725 -70.85466337 92.84915008 -71.40234375 91.4296875 C-72.26376359 89.20898551 -73.12894286 86.99001025 -74.00341797 84.77441406 C-74.84968325 82.62470024 -75.67984189 80.46931428 -76.5078125 78.3125 C-76.77232208 77.65403076 -77.03683167 76.99556152 -77.30935669 76.31713867 C-78.75846222 72.50242668 -79.47724478 69.87384982 -78 66 C-76.54467773 64.16650391 -76.54467773 64.16650391 -74.68359375 62.4765625 C-74.00103516 61.8475 -73.31847656 61.2184375 -72.61523438 60.5703125 C-71.53725586 59.60738281 -71.53725586 59.60738281 -70.4375 58.625 C-69.74591797 57.99078125 -69.05433594 57.3565625 -68.34179688 56.703125 C-64.2199797 52.93855759 -60.0233093 49.26169378 -55.81518555 45.59423828 C-53.40354135 43.47614324 -51.04510248 41.3029407 -48.6875 39.125 C-44.17096163 35.00093324 -39.50866984 31.12063135 -34.75 27.28125 C-31.91900422 24.93281032 -29.20616402 22.49090098 -26.5 20 C-21.97353607 15.83565319 -17.30778301 11.90504548 -12.515625 8.05078125 C-10.28669081 6.23371533 -8.14004059 4.3572423 -6 2.4375 C-3 0 -3 0 0 0 Z " fill="#15BCB0" transform="translate(312,199)"/>
<path d="M0 0 C1.5625 2.3125 1.5625 2.3125 2 5 C2.20625 5.886875 2.4125 6.77375 2.625 7.6875 C4.56151927 24.79342018 -2.94987747 37.46611424 -13.3125 50.625 C-19.99673782 58.58727314 -27.91693081 65.00942271 -35.98046875 71.515625 C-38.26343173 73.39397488 -40.50857024 75.2945094 -42.73828125 77.234375 C-43.37282227 77.78569092 -44.00736328 78.33700684 -44.66113281 78.9050293 C-45.91278268 79.99612469 -47.16093648 81.09124575 -48.40527344 82.19067383 C-52.78039021 86 -52.78039021 86 -55 86 C-54.43732422 87.77890625 -54.43732422 87.77890625 -53.86328125 89.59375 C-50.55564671 100.05634317 -47.26556005 110.52419896 -44 121 C-40.89089513 121 -39.620166 119.0527232 -37.375 117 C-36.55773437 116.2575 -35.74046875 115.515 -34.8984375 114.75 C-34.27195312 114.1725 -33.64546875 113.595 -33 113 C-29.21004487 114.58876339 -26.62824323 116.97389547 -23.6875 119.8125 C-22.33205078 121.09060547 -22.33205078 121.09060547 -20.94921875 122.39453125 C-19 125 -19 125 -19.01953125 127.578125 C-22.122374 135.24251745 -29.14852982 139.89843962 -36 144 C-34.26751883 151.63866698 -32.13135691 158.81536384 -29 166 C-28.48050781 165.44570312 -27.96101562 164.89140625 -27.42578125 164.3203125 C-26.72839844 163.59585938 -26.03101563 162.87140625 -25.3125 162.125 C-24.62800781 161.40570313 -23.94351563 160.68640625 -23.23828125 159.9453125 C-21 158 -21 158 -16 156 C-11.71 160.29 -7.42 164.58 -3 169 C-7.52445697 178.04891394 -13.49838891 182.7370979 -22 188 C-20.74282488 194.13450701 -19.13204284 200.0503636 -17.1875 206 C-13.14678066 218.58051199 -9.41594134 231.23516657 -6 244 C-8.31 246.31 -10.62 248.62 -13 251 C-16.88321341 249.05839329 -17.71510437 248.4301279 -19.99609375 245.0625 C-20.54789307 244.2593335 -21.09969238 243.45616699 -21.66821289 242.62866211 C-22.25207764 241.76120361 -22.83594238 240.89374512 -23.4375 240 C-24.69403575 238.16709283 -25.95187541 236.33507894 -27.2109375 234.50390625 C-27.84483398 233.57852051 -28.47873047 232.65313477 -29.13183594 231.69970703 C-31.87770422 227.73161876 -34.7167296 223.83423054 -37.5625 219.9375 C-42.0114644 213.82506849 -46.32361262 207.63475229 -50.5625 201.375 C-55.1367708 194.62099691 -59.89665809 188.05339513 -64.83447266 181.56152344 C-68.36185785 176.90598416 -71.6280984 172.12841156 -74.82421875 167.23828125 C-77.54123436 163.19446447 -80.38763439 159.25421424 -83.25 155.3125 C-87.78868387 149.05431475 -92.32487285 142.79495625 -96.8125 136.5 C-97.33424805 135.77594971 -97.85599609 135.05189941 -98.39355469 134.3059082 C-102 129.2298303 -102 129.2298303 -102 127 C-106.36076545 129.40087086 -109.90816863 132.35961188 -113.625 135.625 C-117.92599852 139.36279266 -122.24959692 143.04913565 -126.6875 146.625 C-131.42977487 150.47461137 -135.94928961 154.52712671 -140.4453125 158.66015625 C-142.62697815 160.65834848 -144.83011309 162.62148889 -147.0625 164.5625 C-151.76169016 168.64916843 -156.37780424 172.8266973 -161 177 C-162.68711808 178.52125701 -164.37461446 180.04209457 -166.0625 181.5625 C-166.87460938 182.30371094 -167.68671875 183.04492188 -168.5234375 183.80859375 C-170.19472931 185.28744975 -171.91070884 186.71708306 -173.6640625 188.09765625 C-174.49679688 188.76667969 -175.32953125 189.43570313 -176.1875 190.125 C-176.94417969 190.70507812 -177.70085937 191.28515625 -178.48046875 191.8828125 C-180.34127035 193.99811277 -180.34127035 193.99811277 -179.76733398 197.17675781 C-178.98093841 201.09497438 -177.76905265 204.61774969 -176.2421875 208.2890625 C-175.6937472 209.65614443 -175.14557806 211.02333517 -174.59765625 212.390625 C-173.73516996 214.5165478 -172.86856872 216.640651 -171.99658203 218.76269531 C-171.1506514 220.82967944 -170.32066158 222.9025322 -169.4921875 224.9765625 C-169.22767792 225.60688385 -168.96316833 226.2372052 -168.69064331 226.8866272 C-167.1978033 230.64976598 -166.66928554 233.13393786 -168 237 C-169.62890625 239.23828125 -169.62890625 239.23828125 -171.5625 241.3125 C-172.20316406 242.00988281 -172.84382813 242.70726562 -173.50390625 243.42578125 C-173.99761719 243.94527344 -174.49132812 244.46476563 -175 245 C-179.19371309 241.25307475 -182.0753942 236.6963223 -185.1875 232.0625 C-185.76266357 231.22162842 -186.33782715 230.38075684 -186.93041992 229.5144043 C-189.55386792 225.67314918 -192.13537686 221.82322371 -194.5703125 217.859375 C-197.91737742 211.88278677 -197.91737742 211.88278677 -203.328125 208.2109375 C-205.78874075 208.0956599 -205.78874075 208.0956599 -209 209 C-208.77957031 207.84371094 -208.55914062 206.68742188 -208.33203125 205.49609375 C-208.34109464 202.32739437 -208.71467616 201.29534274 -210.94677734 198.98486328 C-213.78895575 196.87580951 -216.69519783 194.95261793 -219.6875 193.0625 C-220.73429932 192.37027344 -221.78109863 191.67804688 -222.85961914 190.96484375 C-224.94182968 189.58862291 -227.03084983 188.22264274 -229.12695312 186.86767578 C-232.78624497 184.48888732 -236.36655682 182.0084793 -239.9375 179.5 C-241.62479881 178.33304237 -243.31220072 177.16623367 -245 176 C-244.21496094 175.22398437 -243.42992187 174.44796875 -242.62109375 173.6484375 C-240.03322838 171.11812423 -240.03322838 171.11812423 -238.0625 168.625 C-236 167 -236 167 -233.32055664 167.22827148 C-229.66380349 168.07813522 -226.27441679 169.310253 -222.80859375 170.72265625 C-221.43819771 171.26639367 -220.06775355 171.81000984 -218.69726562 172.35351562 C-216.56112919 173.20890505 -214.42615697 174.0670762 -212.29223633 174.92797852 C-210.21716876 175.76262792 -208.13817567 176.58683234 -206.05859375 177.41015625 C-205.10840614 177.7991787 -205.10840614 177.7991787 -204.13902283 178.19606018 C-200.65545352 179.57013393 -197.74460359 180.57748979 -194 180 C-192.1786061 178.78847543 -192.1786061 178.78847543 -190.6953125 177 C-190.11547607 176.36408936 -189.53563965 175.72817871 -188.93823242 175.07299805 C-188.33986572 174.38890869 -187.74149902 173.70481934 -187.125 173 C-186.50149658 172.3088208 -185.87799316 171.6176416 -185.2355957 170.90551758 C-183.47627724 168.94900433 -181.73523991 166.97786354 -180 165 C-179.28972656 164.19949219 -178.57945312 163.39898437 -177.84765625 162.57421875 C-176.76427087 161.34298313 -175.68712611 160.10621988 -174.6171875 158.86328125 C-172.71420856 156.67071856 -170.76402596 154.52445653 -168.8125 152.375 C-164.6044793 147.71535187 -160.52070283 142.95841303 -156.44921875 138.17993164 C-153.45565677 134.67423764 -150.4173581 131.22079973 -147.3125 127.8125 C-143.41061308 123.51476948 -139.7287538 119.0660752 -136.08203125 114.55078125 C-134.26426987 112.32376777 -132.40131222 110.15542555 -130.5 108 C-127.86841135 105.21256629 -127.86841135 105.21256629 -127 102 C-128.01126953 101.67322266 -128.01126953 101.67322266 -129.04296875 101.33984375 C-132.91213078 99.58670957 -135.97240218 97.16112467 -139.3125 94.5625 C-144.76289591 90.39739137 -150.26521603 86.35788619 -155.9375 82.5 C-167.38367694 74.70617241 -178.67150775 66.70095495 -189.875 58.5625 C-196.01510585 54.10410461 -202.22241049 49.76247365 -208.5 45.5 C-215.60147477 40.67789419 -222.61039971 35.74667024 -229.54248047 30.68383789 C-233.07480155 28.10416355 -236.61955799 25.5590222 -240.23828125 23.1015625 C-240.89594482 22.64998779 -241.5536084 22.19841309 -242.23120117 21.7331543 C-243.45952111 20.89279154 -244.69503979 20.06281911 -245.9387207 19.24536133 C-247.5703125 18.12109375 -247.5703125 18.12109375 -250 16 C-250 12 -250 12 -248.78955078 10.21337891 C-244.28354645 5.98891986 -244.28354645 5.98891986 -240.85058594 6.01855469 C-238.42932612 6.63366267 -236.19234896 7.44201699 -233.875 8.375 C-232.1785391 8.98610389 -230.48192412 9.59678019 -228.78515625 10.20703125 C-227.96418457 10.51721191 -227.14321289 10.82739258 -226.29736328 11.14697266 C-223.33777773 12.24588784 -220.33858718 13.16489967 -217.3125 14.0625 C-202.62125205 18.55084003 -187.9825279 23.21067837 -173.3371582 27.84594727 C-161.93539321 31.45608653 -161.93539321 31.45608653 -150.51171875 34.99609375 C-141.15482992 37.86280031 -131.83148225 40.83678631 -122.50195312 43.79101562 C-117.71846213 45.30534938 -112.93400681 46.81655038 -108.14794922 48.32275391 C-106.14063541 48.95565781 -104.13472509 49.59284709 -102.12890625 50.23046875 C-100.99324219 50.58753906 -99.85757813 50.94460937 -98.6875 51.3125 C-97.72199219 51.61800781 -96.75648438 51.92351562 -95.76171875 52.23828125 C-92.82903054 53.04715565 -90.02829266 53.68668257 -87 54 C-84.62207329 52.32884712 -84.62207329 52.32884712 -82.6875 49.75 C-81.52541016 48.35587891 -81.52541016 48.35587891 -80.33984375 46.93359375 C-79.56769531 45.96550781 -78.79554688 44.99742188 -78 44 C-76.58361543 42.27060226 -75.1669478 40.5414363 -73.75 38.8125 C-73.01265625 37.905 -72.2753125 36.9975 -71.515625 36.0625 C-58.13139945 19.7686602 -43.18500371 1.82842183 -21.4375 -2.75 C-13.77445084 -3.30731267 -7.10444374 -3.34484168 0 0 Z " fill="#FDFEFE" transform="translate(414,72)"/>
<path d="M0 0 C3.79416724 0.5488418 6.30191022 2.80218664 9.234375 5.109375 C10.5743318 6.1278683 11.91552434 7.14473745 13.2578125 8.16015625 C14.29953613 8.95413818 14.29953613 8.95413818 15.36230469 9.76416016 C18.80641702 12.353188 22.33096155 14.82462135 25.859375 17.296875 C27.289101 18.30202857 28.71878822 19.30723731 30.1484375 20.3125 C30.86161133 20.81330078 31.57478516 21.31410156 32.30957031 21.83007812 C34.50325347 23.37265012 36.69358168 24.91986677 38.8828125 26.46875 C47.38277664 32.48216879 55.90915486 38.45365817 64.484375 44.359375 C63.89559129 47.50483214 62.98864029 49.27081321 60.859375 51.64453125 C60.0537915 52.55561646 60.0537915 52.55561646 59.23193359 53.48510742 C58.36689209 54.44380737 58.36689209 54.44380737 57.484375 55.421875 C56.28779244 56.77231321 55.09248503 58.12388233 53.8984375 59.4765625 C53.31223633 60.13881836 52.72603516 60.80107422 52.12207031 61.48339844 C49.96726245 63.95172634 47.90879233 66.49069266 45.859375 69.046875 C41.78182457 74.08384906 37.44642031 78.83637325 33.04296875 83.5859375 C30.40426521 86.44621157 27.84175146 89.36081846 25.29296875 92.30078125 C23.0542625 94.8489415 20.77027288 97.35348093 18.484375 99.859375 C15.600174 103.02199057 12.73260025 106.19377988 9.921875 109.421875 C9.37402344 110.040625 8.82617188 110.659375 8.26171875 111.296875 C6.90544204 112.87075215 5.59274327 114.48228867 4.30078125 116.109375 C3.53636719 117.0375 2.77195312 117.965625 1.984375 118.921875 C1.2934375 119.78941406 0.6025 120.65695313 -0.109375 121.55078125 C-2.515625 123.359375 -2.515625 123.359375 -5.69458008 123.14477539 C-9.66942496 122.32776204 -13.3060049 121.1022963 -17.05859375 119.6015625 C-18.47584502 119.05321367 -19.89316474 118.50504172 -21.31054688 117.95703125 C-23.51732706 117.09364792 -25.7226167 116.2266742 -27.92651367 115.35595703 C-30.07118314 114.51177104 -32.22070859 113.6810586 -34.37109375 112.8515625 C-35.02845016 112.58705292 -35.68580658 112.32254333 -36.36308289 112.05001831 C-38.94122632 111.06053743 -40.99609671 110.30895498 -43.7746582 110.57861328 C-45.79934098 111.42887626 -45.79934098 111.42887626 -48.515625 113.359375 C-50.000625 112.369375 -50.000625 112.369375 -51.515625 111.359375 C-50.855625 111.359375 -50.195625 111.359375 -49.515625 111.359375 C-49.85790072 108.38871991 -49.85790072 108.38871991 -50.515625 105.359375 C-51.175625 105.029375 -51.835625 104.699375 -52.515625 104.359375 C-52.185625 100.399375 -51.855625 96.439375 -51.515625 92.359375 C-52.485 91.92625 -53.454375 91.493125 -54.453125 91.046875 C-56.97700242 89.42565492 -57.45472953 88.6255533 -58.13671875 85.64453125 C-58.36848643 82.87401603 -58.50603969 80.13911466 -58.515625 77.359375 C-59.4025 77.854375 -60.289375 78.349375 -61.203125 78.859375 C-64.39148738 80.30316174 -66.09750046 80.66097422 -69.515625 80.359375 C-69.721875 79.245625 -69.928125 78.131875 -70.140625 76.984375 C-71.12695349 73.16124464 -71.12695349 73.16124464 -74.328125 71.921875 C-77.1560929 71.42282184 -79.65546285 71.19113017 -82.515625 71.359375 C-85.14914583 75.9081837 -86.10677718 79.95523785 -86.79296875 85.08984375 C-87.72466257 88.01586597 -88.89311203 88.83476965 -91.515625 90.359375 C-94.765625 91.046875 -94.765625 91.046875 -97.515625 91.359375 C-98.175625 93.999375 -98.835625 96.639375 -99.515625 99.359375 C-100.835625 99.029375 -102.155625 98.699375 -103.515625 98.359375 C-103.185625 95.389375 -102.855625 92.419375 -102.515625 89.359375 C-104.495625 88.988125 -104.495625 88.988125 -106.515625 88.609375 C-111.33264054 87.55589141 -115.19774642 85.7145815 -119.515625 83.359375 C-120.015625 80.734375 -120.015625 80.734375 -119.515625 77.359375 C-114.33820215 71.40304783 -105.69996757 68.13089977 -98.515625 65.359375 C-97.525625 65.359375 -96.535625 65.359375 -95.515625 65.359375 C-95.185625 66.679375 -94.855625 67.999375 -94.515625 69.359375 C-94.185625 69.359375 -93.855625 69.359375 -93.515625 69.359375 C-92.525625 68.369375 -92.525625 68.369375 -91.515625 67.359375 C-88.890625 67.234375 -88.890625 67.234375 -86.515625 67.359375 C-87.835625 65.379375 -89.155625 63.399375 -90.515625 61.359375 C-89.484375 61.359375 -88.453125 61.359375 -87.390625 61.359375 C-84.65818442 61.01370481 -83.76202432 60.65220635 -81.9609375 58.51171875 C-81.48398438 57.78082031 -81.00703125 57.04992187 -80.515625 56.296875 C-77.91547507 52.44505716 -77.91547507 52.44505716 -74.015625 51.609375 C-70.06832994 52.45522394 -67.67953601 53.88998104 -64.515625 56.359375 C-65.91654492 59.74493147 -67.31232311 61.54128474 -70.515625 63.359375 C-74.265625 64.046875 -74.265625 64.046875 -77.515625 64.359375 C-77.515625 64.689375 -77.515625 65.019375 -77.515625 65.359375 C-76.443125 65.441875 -75.370625 65.524375 -74.265625 65.609375 C-70.515625 66.359375 -70.515625 66.359375 -68.703125 68.484375 C-66.683802 70.61914947 -66.683802 70.61914947 -64.05078125 70.3984375 C-61.51755671 70.13552219 -59.02372326 69.79972813 -56.515625 69.359375 C-56.515625 67.049375 -56.515625 64.739375 -56.515625 62.359375 C-53.545625 62.689375 -50.575625 63.019375 -47.515625 63.359375 C-47.7114042 60.95793233 -47.7114042 60.95793233 -48.515625 58.359375 C-49.83349785 57.33908635 -51.16773153 56.33966116 -52.515625 55.359375 C-52.78375 54.534375 -53.051875 53.709375 -53.328125 52.859375 C-55.0825477 49.16585353 -57.81909365 48.77077788 -61.515625 47.359375 C-61.845625 46.699375 -62.175625 46.039375 -62.515625 45.359375 C-65.9531073 45.33036106 -69.39055812 45.31257165 -72.828125 45.296875 C-74.29282227 45.28430664 -74.29282227 45.28430664 -75.78710938 45.27148438 C-76.72490234 45.26826172 -77.66269531 45.26503906 -78.62890625 45.26171875 C-79.49298096 45.25648193 -80.35705566 45.25124512 -81.24731445 45.24584961 C-83.68291214 45.26601977 -83.68291214 45.26601977 -86.515625 46.359375 C-86.515625 48.009375 -86.515625 49.659375 -86.515625 51.359375 C-85.525625 51.854375 -85.525625 51.854375 -84.515625 52.359375 C-85.6131473 55.35261763 -86.19245392 56.20548401 -89.140625 57.609375 C-89.924375 57.856875 -90.708125 58.104375 -91.515625 58.359375 C-91.515625 57.039375 -91.515625 55.719375 -91.515625 54.359375 C-92.175625 54.359375 -92.835625 54.359375 -93.515625 54.359375 C-93.515625 52.049375 -93.515625 49.739375 -93.515625 47.359375 C-91.205625 46.699375 -88.895625 46.039375 -86.515625 45.359375 C-86.845625 44.699375 -87.175625 44.039375 -87.515625 43.359375 C-90.85935975 43.91666413 -93.54875499 44.71111389 -96.515625 46.359375 C-96.515625 45.369375 -96.515625 44.379375 -96.515625 43.359375 C-99.980625 43.854375 -99.980625 43.854375 -103.515625 44.359375 C-79.45610174 18.18936725 -34.06920686 4.86702955 0 0 Z " fill="#0E7886" transform="translate(222.515625,129.640625)"/>
<path d="M0 0 C1.32 0.66 2.64 1.32 4 2 C2.35 4.97 0.7 7.94 -1 11 C4.1966857 16.53051579 4.1966857 16.53051579 11.125 18.5625 C15.54889713 19.06197226 16.82474393 19.87199266 19.71875 23.05078125 C21.21789224 25.3314885 21.92167046 27.52880048 22.75 30.125 C23.88444479 33.35380439 24.44194564 34.66007764 27.3984375 36.4609375 C30.08649391 37.52465228 30.08649391 37.52465228 32.7578125 38.28125 C35 39 35 39 37 41 C38.5100946 41.30829909 40.0344023 41.54912331 41.5625 41.75 C47.40438343 42.81523489 51.38002533 45.37741294 56 49 C57.2684375 49.9590625 57.2684375 49.9590625 58.5625 50.9375 C60.83552212 54.19879261 60.63984737 56.09693104 60 60 C58.61717626 62.46610406 57.09079661 64.71173603 55.41015625 66.984375 C53.02123899 70.39900466 52.88953619 73.37812892 52.76074219 77.4465332 C52.50663841 84.78759129 52.00391583 91.60185072 48 98 C45.70475806 99.91270161 43.81834924 100.76032932 40.97265625 101.59375 C38.51662367 102.48200772 36.91637859 103.20557278 35 105 C34.10393531 108.2079116 33.79770869 111.2834274 33.48828125 114.59765625 C32.7585399 119.68249399 30.52826728 123.59984252 28 128 C27.32513819 129.32920418 26.65571568 130.66124716 26 132 C23.36 132 20.72 132 18 132 C18.495 132.721875 18.99 133.44375 19.5 134.1875 C21.07919285 137.14848659 21.28178312 138.71253029 21 142 C14.25 145 14.25 145 12 145 C12 146.98 12 148.96 12 151 C5.68345056 152.56260189 2.34562182 151.27239971 -3.25 148.1875 C-3.95640625 147.81818359 -4.6628125 147.44886719 -5.390625 147.06835938 C-8.37395133 145.49476774 -11.18916108 143.87389261 -14 142 C-14.36033298 139.31227038 -14.55819887 136.82090283 -14.625 134.125 C-14.69452588 129.0769838 -14.69452588 129.0769838 -15.48413086 124.12133789 C-16.12480061 121.48679958 -16.28869472 118.94390452 -16.46484375 116.23828125 C-16.54283203 115.11873047 -16.62082031 113.99917969 -16.70117188 112.84570312 C-16.85740607 110.50993731 -17.01109613 108.17399979 -17.16210938 105.83789062 C-17.41646246 94.49738275 -17.41646246 94.49738275 -22.125 84.8125 C-23.07375 84.214375 -24.0225 83.61625 -25 83 C-34.7830165 76.54522623 -39.10051041 68.1010763 -44.38671875 57.8203125 C-45.76089381 55.03081201 -45.76089381 55.03081201 -47.671875 53.625 C-49.9692359 50.81411137 -49.57145646 47.3501049 -49.5625 43.875 C-49.56443359 43.10671875 -49.56636719 42.3384375 -49.56835938 41.546875 C-49.40625434 35.75039207 -48.03566041 32.50357288 -44.3515625 27.97265625 C-42.35325289 25.0560483 -42.29186692 22.6801208 -42.5234375 19.21875 C-43.34542679 15.39178347 -45.03713611 12.37367232 -47 9 C-44.69 9.33 -42.38 9.66 -40 10 C-39.690625 9.071875 -39.38125 8.14375 -39.0625 7.1875 C-36.2030293 2.76831801 -32.95272438 2.18366998 -28 1 C-28 1.99 -28 2.98 -28 4 C-27.278125 3.608125 -26.55625 3.21625 -25.8125 2.8125 C-24.884375 2.544375 -23.95625 2.27625 -23 2 C-22.2678125 2.4640625 -21.535625 2.928125 -20.78125 3.40625 C-17.3043093 5.39865422 -14.66969621 5.50141606 -10.6875 5.6875 C-9.43324219 5.75324219 -8.17898437 5.81898438 -6.88671875 5.88671875 C-5.45779297 5.94279297 -5.45779297 5.94279297 -4 6 C-3.566875 5.071875 -3.566875 5.071875 -3.125 4.125 C-2 2 -2 2 0 0 Z " fill="#15BCB0" transform="translate(145,338)"/>
<path d="M0 0 C15.45932486 7.23675642 28.97591093 18.0294114 41.6953125 29.26171875 C42.20835937 29.71160156 42.72140625 30.16148437 43.25 30.625 C77.65976662 60.93004827 104.58870823 104.74512917 112.6953125 150.26171875 C112.8203125 153.82421875 112.8203125 153.82421875 112.6953125 156.26171875 C110.70963542 156.48958333 108.72395833 156.71744792 106.73828125 156.9453125 C102.67222642 157.57504566 101.05593908 158.73136203 98.5078125 161.82421875 C96.59928936 164.12746843 94.78726694 166.18430063 92.49609375 168.11328125 C89.04514013 171.02521698 86.94719927 172.89313395 86.109375 177.4453125 C86.00124639 179.71343885 85.92749929 181.98350337 85.890625 184.25390625 C85.6173347 188.46257681 84.55613156 190.23261621 81.6953125 193.26171875 C80.7053125 193.59171875 79.7153125 193.92171875 78.6953125 194.26171875 C77.85740461 192.4721869 77.02511854 190.6800218 76.1953125 188.88671875 C75.73125 187.88898438 75.2671875 186.89125 74.7890625 185.86328125 C73.6953125 183.26171875 73.6953125 183.26171875 73.6953125 181.26171875 C70.92316894 183.94247296 68.47597506 186.7004057 66.1328125 189.76171875 C65.55402344 190.51453125 64.97523438 191.26734375 64.37890625 192.04296875 C62.81017931 194.11033975 61.24938933 196.18331812 59.6953125 198.26171875 C57.7153125 197.27171875 57.7153125 197.27171875 55.6953125 196.26171875 C57.35963648 192.50794455 59.71091197 189.45394477 62.1953125 186.19921875 C64.4380834 183.25376151 66.64162462 180.34225057 68.6953125 177.26171875 C69.6853125 177.26171875 70.6753125 177.26171875 71.6953125 177.26171875 C71.4065625 176.39289063 71.1178125 175.5240625 70.8203125 174.62890625 C70.4490625 173.47648438 70.0778125 172.3240625 69.6953125 171.13671875 C69.3240625 169.99976563 68.9528125 168.8628125 68.5703125 167.69140625 C67.72619301 164.38275934 67.53021974 161.65643859 67.6953125 158.26171875 C65.7153125 158.59171875 63.7353125 158.92171875 61.6953125 159.26171875 C61.30859375 158.730625 60.921875 158.19953125 60.5234375 157.65234375 C60.00265625 156.9459375 59.481875 156.23953125 58.9453125 155.51171875 C58.43484375 154.815625 57.924375 154.11953125 57.3984375 153.40234375 C53.83813379 148.68114295 53.83813379 148.68114295 48.4609375 146.65234375 C47.30078125 146.6059375 46.140625 146.55953125 44.9453125 146.51171875 C43.77484375 146.455 42.604375 146.39828125 41.3984375 146.33984375 C40.50640625 146.3140625 39.614375 146.28828125 38.6953125 146.26171875 C35.64546852 139.90391483 33.46891349 133.56172617 31.6328125 126.76171875 C31.1439203 124.97992065 30.65305058 123.19866391 30.16015625 121.41796875 C29.80606689 120.12826172 29.80606689 120.12826172 29.44482422 118.8125 C28.4921552 115.57032218 27.3497725 112.41055011 26.15063477 109.25195312 C25.60431219 106.86395223 25.81404892 105.53613007 26.6953125 103.26171875 C28.98828125 101.3671875 28.98828125 101.3671875 31.8828125 99.44921875 C37.37843318 95.61872111 42.50258068 91.8399142 44.6953125 85.26171875 C40.7353125 81.30171875 36.7753125 77.34171875 32.6953125 73.26171875 C28.13142411 75.08727411 26.59159174 76.01478124 23.3828125 79.38671875 C22.33673828 80.47339844 22.33673828 80.47339844 21.26953125 81.58203125 C20.75003906 82.13632813 20.23054688 82.690625 19.6953125 83.26171875 C16.53691683 80.10332308 15.82154746 76.02507949 14.5078125 71.82421875 C14.22228516 70.95216797 13.93675781 70.08011719 13.64257812 69.18164062 C13.37767578 68.34310547 13.11277344 67.50457031 12.83984375 66.640625 C12.59596924 65.87306885 12.35209473 65.1055127 12.10083008 64.31469727 C11.6953125 62.26171875 11.6953125 62.26171875 12.6953125 59.26171875 C14.515625 57.9375 14.515625 57.9375 16.8203125 56.57421875 C21.45926543 53.58566253 25.98875699 50.17326529 28.6953125 45.26171875 C28.68946373 41.64717594 27.77161916 40.35106928 25.41015625 37.5859375 C24.49363281 36.71582031 23.57710938 35.84570312 22.6328125 34.94921875 C21.71371094 34.06621094 20.79460937 33.18320313 19.84765625 32.2734375 C19.13738281 31.60957031 18.42710937 30.94570312 17.6953125 30.26171875 C13.92394852 31.55140799 11.61460229 32.99423545 8.8828125 35.88671875 C8.27824219 36.51835937 7.67367188 37.15 7.05078125 37.80078125 C6.60347656 38.28289062 6.15617187 38.765 5.6953125 39.26171875 C3.50235553 37.06876178 3.03283505 35.7650983 2.07421875 32.859375 C1.77974854 31.97362793 1.48527832 31.08788086 1.18188477 30.17529297 C0.87694092 29.23443848 0.57199707 28.29358398 0.2578125 27.32421875 C-0.05422119 26.37305176 -0.36625488 25.42188477 -0.68774414 24.44189453 C-6.3046875 7.1823717 -6.3046875 7.1823717 -6.3046875 2.26171875 C-4.07890461 -0.12893695 -3.21532607 -1.02999428 0 0 Z " fill="#16BCB0" transform="translate(365.3046875,155.73828125)"/>
<path d="M0 0 C3.94463583 3.77312992 3.94463583 3.77312992 4.09765625 7.1640625 C4.08605469 7.97617187 4.07445312 8.78828125 4.0625 9.625 C4.05347656 10.44226563 4.04445313 11.25953125 4.03515625 12.1015625 C4.02355469 12.72804688 4.01195312 13.35453125 4 14 C4.69480469 14.25523437 5.38960937 14.51046875 6.10546875 14.7734375 C9.34909288 16.1479287 12.26855761 17.85331616 15.3125 19.625 C20.54732085 22.6040766 20.54732085 22.6040766 26.375 23.0625 C30.42042069 22.99275137 30.67409266 23.21905165 33.4375 25.8125 C33.99824219 26.36421875 34.55898437 26.9159375 35.13671875 27.484375 C37.29085929 29.23658995 39.08729421 29.82262052 41.75 30.5625 C45.02299939 31.50481158 45.80662712 31.76560863 48.0625 34.5 C49 37 49 37 49 40 C49.53625 40.2475 50.0725 40.495 50.625 40.75 C53 42 53 42 56.0625 44.0625 C58.8835734 46.10472543 58.8835734 46.10472543 62 47 C62.33 46.01 62.66 45.02 63 44 C63.99 44 64.98 44 66 44 C69.03271102 48.92815541 70.23004483 53.32653743 69 59 C67.65234375 60.98046875 67.65234375 60.98046875 66 63 C61.18162969 69.50479992 61.87407947 77.32396069 63 85 C64.12342754 87.44630418 65.29885467 88.91675542 67.16015625 90.84375 C69.69717285 93.81706882 71.20970762 97.13806922 72.9375 100.625 C75.8235845 106.26723332 78.58866929 110.57028335 84 114 C88.28032757 116.71636173 90.78840323 118.40383241 93 123 C93.50459057 125.85462195 93.87465498 128.56294299 94.125 131.4375 C94.20355225 132.22721191 94.28210449 133.01692383 94.36303711 133.83056641 C94.95431355 139.93775679 95.399127 146.0543152 95.75390625 152.1796875 C95.90875778 154.87564648 95.90875778 154.87564648 96.50927734 156.93310547 C97.31538955 160.32840195 97.1023452 163.78040227 97.0625 167.25 C97.05798828 167.99507812 97.05347656 168.74015625 97.04882812 169.5078125 C97.03709246 171.3385764 97.0191585 173.16929873 97 175 C77.24199166 164.89507266 59.93052565 151.34454395 44 136 C43.38979004 135.41702148 42.77958008 134.83404297 42.15087891 134.23339844 C33.77247113 126.19508942 26.14197094 117.93133085 19.21142578 108.61279297 C18.08189202 107.10902432 16.91528759 105.63329997 15.74609375 104.16015625 C-4.0498032 78.91064905 -4.0498032 78.91064905 -4.17700195 68.65576172 C-4.18983719 67.75236053 -4.20267242 66.84895935 -4.21589661 65.91818237 C-4.22328354 64.93197906 -4.23067047 63.94577576 -4.23828125 62.9296875 C-4.246353 61.90183136 -4.25442474 60.87397522 -4.26274109 59.81497192 C-4.27661172 57.6208058 -4.28732045 55.42661782 -4.29516602 53.23242188 C-4.30651899 51.03346232 -4.32669398 48.83452646 -4.35668945 46.63574219 C-4.57418728 30.67942141 -3.16188047 15.64677309 0 0 Z " fill="#0F7886" transform="translate(34,305)"/>
<path d="M0 0 C3.28573912 0.5908566 5.04775732 1.63454191 7.5 3.875 C9.38879893 5.58218365 11.0994939 7.06356555 13.25 8.4375 C15.91191627 10.81421096 16.71749917 13.71010658 18 17 C18.98537521 19.0072458 19.98063057 21.00980253 21 23 C21.99 23 22.98 23 24 23 C24.75988352 20.63591793 25.0820237 19.30986733 24.4375 16.875 C24.2209375 15.946875 24.2209375 15.946875 24 15 C24.66 14.34 25.32 13.68 26 13 C27.953125 13.05859375 27.953125 13.05859375 30 14 C31.484375 16.28515625 31.484375 16.28515625 32.75 19.0625 C33.17796875 19.98160156 33.6059375 20.90070313 34.046875 21.84765625 C34.36140625 22.55792969 34.6759375 23.26820313 35 24 C36.21558594 24.06058594 37.43117188 24.12117188 38.68359375 24.18359375 C40.26824228 24.26798332 41.85287702 24.3526321 43.4375 24.4375 C44.23994141 24.47681641 45.04238281 24.51613281 45.86914062 24.55664062 C51.88671875 24.88671875 51.88671875 24.88671875 53 26 C53.25367278 31.07345565 53.07461173 34.30957349 51 39 C42.01021247 40.12986401 35.22925433 40.47456275 26.68359375 37.0078125 C23.79568458 35.92327019 21.04937256 35.42091192 18 35 C17.67 36.98 17.34 38.96 17 41 C11.05743089 40.59711396 8.59654515 39.90706337 4 36 C1.37190912 34.82648099 -1.26903812 33.92574979 -4 33 C-4.495 28.545 -4.495 28.545 -5 24 C-17.40366758 23.40185802 -17.40366758 23.40185802 -29.125 26.5625 C-32.99300019 28.49650009 -35.71307223 28.22173764 -40 28 C-39.67 26.68 -39.34 25.36 -39 24 C-37.1746875 23.7834375 -37.1746875 23.7834375 -35.3125 23.5625 C-32.52182117 22.87586549 -31.32139046 22.42385009 -29.56640625 20.109375 C-28.75586588 18.54675946 -27.9661751 16.9731906 -27.1953125 15.390625 C-24.99644609 10.99289217 -22.51211529 6.94094911 -17.7578125 5.16015625 C-15.50612075 4.65444843 -13.28589747 4.30755711 -11 4 C-9.66271047 3.68291073 -8.32786313 3.3544974 -7 3 C-6.360625 3.86625 -5.72125 4.7325 -5.0625 5.625 C-2.19141281 9.13318723 1.22669268 11.23220068 5.109375 13.5078125 C7.31459562 15.24829654 7.64763588 16.26330531 8 19 C8.66 19 9.32 19 10 19 C10.33 17.02 10.66 15.04 11 13 C10.45730469 12.61328125 9.91460937 12.2265625 9.35546875 11.828125 C8.64003906 11.30734375 7.92460937 10.7865625 7.1875 10.25 C6.47980469 9.73953125 5.77210938 9.2290625 5.04296875 8.703125 C2.93533281 6.94609007 1.45163277 5.32627585 0 3 C0 2.01 0 1.02 0 0 Z " fill="#0E7987" transform="translate(291,246)"/>
<path d="M0 0 C1.48828125 1.95703125 1.48828125 1.95703125 3.3125 4.8125 C4.02664063 5.91078125 4.74078125 7.0090625 5.4765625 8.140625 C5.87649414 8.75615234 6.27642578 9.37167969 6.68847656 10.00585938 C9.13578427 13.72693334 11.66631748 17.39126489 14.1875 21.0625 C15.31645123 22.70960459 16.44535682 24.35674046 17.57421875 26.00390625 C18.14188965 26.83164551 18.70956055 27.65938477 19.29443359 28.51220703 C22.03256178 32.5061272 24.76611405 36.50317536 27.5 40.5 C28.58330998 42.08334931 29.66664334 43.66668262 30.75 45.25 C58.375 85.625 58.375 85.625 86 126 C85.34 126.99 84.68 127.98 84 129 C80.61628842 127.59274056 79.04793748 126.08028547 77.00390625 123.0625 C76.45210693 122.2593335 75.90030762 121.45616699 75.33178711 120.62866211 C74.74792236 119.76120361 74.16405762 118.89374512 73.5625 118 C72.30596425 116.16709283 71.04812459 114.33507894 69.7890625 112.50390625 C69.15516602 111.57852051 68.52126953 110.65313477 67.86816406 109.69970703 C65.12229578 105.73161876 62.2832704 101.83423054 59.4375 97.9375 C54.9885356 91.82506849 50.67638738 85.63475229 46.4375 79.375 C41.8632292 72.62099691 37.10334191 66.05339513 32.16552734 59.56152344 C28.63814215 54.90598416 25.3719016 50.12841156 22.17578125 45.23828125 C19.45876564 41.19446447 16.61236561 37.25421424 13.75 33.3125 C9.21131613 27.05431475 4.67512715 20.79495625 0.1875 14.5 C-0.33424805 13.77594971 -0.85599609 13.05189941 -1.39355469 12.3059082 C-5 7.2298303 -5 7.2298303 -5 5 C-5.66 4.67 -6.32 4.34 -7 4 C-2.25 0 -2.25 0 0 0 Z " fill="#C5CBCD" transform="translate(317,194)"/>
<path d="M0 0 C7.60585693 4.80130176 15.14190773 9.69714258 22.625 14.6875 C24.2018457 15.7384082 24.2018457 15.7384082 25.81054688 16.81054688 C32.44165204 21.24613646 38.9916292 25.77560609 45.48022461 30.41625977 C52.65529142 35.5211828 60.00760269 40.35562428 67.34765625 45.21875 C73.72653933 49.45510747 79.97855735 53.80731714 86.17578125 58.3046875 C92.39956032 62.75049226 98.82583517 66.91137952 105.21289062 71.1171875 C111.19738463 75.07257019 117.04820801 79.16018657 122.8137207 83.42919922 C124.90134894 85.01679975 124.90134894 85.01679975 127 86 C125.70700306 88.88437779 124.34058637 90.87219421 122 93 C122 92.34 122 91.68 122 91 C120.98873047 90.67322266 120.98873047 90.67322266 119.95703125 90.33984375 C116.08786922 88.58670957 113.02759782 86.16112467 109.6875 83.5625 C104.23710409 79.39739137 98.73478397 75.35788619 93.0625 71.5 C81.61632306 63.70617241 70.32849225 55.70095495 59.125 47.5625 C52.98489415 43.10410461 46.77758951 38.76247365 40.5 34.5 C33.39852523 29.67789419 26.38960029 24.74667024 19.45751953 19.68383789 C15.92519845 17.10416355 12.38044201 14.5590222 8.76171875 12.1015625 C8.10405518 11.64998779 7.4463916 11.19841309 6.76879883 10.7331543 C5.54047889 9.89279154 4.30496021 9.06281911 3.0612793 8.24536133 C1.4296875 7.12109375 1.4296875 7.12109375 -1 5 C-1 1 -1 1 0 0 Z " fill="#C8CACC" transform="translate(165,83)"/>
<path d="M0 0 C7.87898814 3.68827995 15.1200115 8.42136964 22.1953125 13.44921875 C22.7823999 13.86494141 23.3694873 14.28066406 23.97436523 14.70898438 C27.15521827 17.00695651 30.01034306 19.3990675 32.6953125 22.26171875 C31.7053125 22.59171875 30.7153125 22.92171875 29.6953125 23.26171875 C29.0353125 22.27171875 28.3753125 21.28171875 27.6953125 20.26171875 C25.11151073 20.01140898 25.11151073 20.01140898 22.6953125 20.26171875 C22.0353125 22.24171875 21.3753125 24.22171875 20.6953125 26.26171875 C21.3553125 26.26171875 22.0153125 26.26171875 22.6953125 26.26171875 C22.6953125 26.92171875 22.6953125 27.58171875 22.6953125 28.26171875 C21.84066406 28.25011719 20.98601562 28.23851562 20.10546875 28.2265625 C19.00074219 28.21753906 17.89601563 28.20851562 16.7578125 28.19921875 C15.65566406 28.18761719 14.55351562 28.17601562 13.41796875 28.1640625 C10.78083616 27.94909304 10.78083616 27.94909304 9.6953125 29.26171875 C7.02472399 29.40287036 4.37099012 29.30418982 1.6953125 29.26171875 C-6.3046875 9.37239069 -6.3046875 9.37239069 -6.3046875 2.26171875 C-4.07890461 -0.12893695 -3.21532607 -1.02999428 0 0 Z " fill="#117986" transform="translate(365.3046875,155.73828125)"/>
<path d="M0 0 C4.07376031 1.61010527 6.76507069 4.53822271 9.75 7.625 C10.25660156 8.140625 10.76320313 8.65625 11.28515625 9.1875 C12.52803902 10.45383339 13.76465276 11.7263144 15 13 C10.90139262 21.73715107 4.40134645 27.32878293 -4 32 C-4.66 32 -5.32 32 -6 32 C-7.06596076 28.92452896 -8.09838661 25.83880623 -9.125 22.75 C-9.42792969 21.87730469 -9.73085938 21.00460938 -10.04296875 20.10546875 C-10.32011719 19.26113281 -10.59726562 18.41679687 -10.8828125 17.546875 C-11.14465332 16.77182617 -11.40649414 15.99677734 -11.67626953 15.19824219 C-12.08205915 12.44278992 -11.48039374 11.31517903 -10 9 C-8.37890625 7.1484375 -8.37890625 7.1484375 -6.5625 5.375 C-5.96566406 4.78460938 -5.36882812 4.19421875 -4.75390625 3.5859375 C-3 2 -3 2 0 0 Z " fill="#F8B42C" transform="translate(396,228)"/>
<path d="M0 0 C3.78995513 1.58876339 6.37175677 3.97389547 9.3125 6.8125 C10.66794922 8.09060547 10.66794922 8.09060547 12.05078125 9.39453125 C14 12 14 12 13.98046875 14.578125 C10.877626 22.24251745 3.85147018 26.89843962 -3 31 C-5 30 -5 30 -6.25390625 26.54296875 C-6.69794058 25.09352337 -7.13379011 23.64155166 -7.5625 22.1875 C-7.78357422 21.46240234 -8.00464844 20.73730469 -8.23242188 19.99023438 C-8.83603343 17.99703971 -9.43183363 16.00358806 -10 14 C-10.22002686 13.30318115 -10.44005371 12.6063623 -10.66674805 11.88842773 C-10.83170776 10.95365601 -10.83170776 10.95365601 -11 10 C-9.453125 7.9296875 -9.453125 7.9296875 -7.25 5.875 C-6.53328125 5.19179687 -5.8165625 4.50859375 -5.078125 3.8046875 C-3 2 -3 2 0 0 Z " fill="#F8B42C" transform="translate(381,185)"/>
<path d="M0 0 C4.32504836 1.65863505 7.09418825 4.871041 10.25 8.125 C10.80429688 8.68832031 11.35859375 9.25164062 11.9296875 9.83203125 C13.29104485 11.21686028 14.64614859 12.60783204 16 14 C14.38743384 17.35188425 13.01671909 19.71707744 10 22 C4.66323527 22.43217972 0.61805255 21.46678698 -4.375 19.625 C-5.59960938 19.18414062 -6.82421875 18.74328125 -8.0859375 18.2890625 C-11 17 -11 17 -12 15 C-10.75457942 13.24673802 -9.50345947 11.49752378 -8.25 9.75 C-7.55390625 8.77546875 -6.8578125 7.8009375 -6.140625 6.796875 C-4.23547701 4.30766704 -2.27315379 2.15028061 0 0 Z " fill="#FBB42B" transform="translate(238,79)"/>
<path d="M0 0 C0.66 0 1.32 0 2 0 C3.65763663 6.66758868 1.97465075 11.60381646 -0.1875 18 C-0.49236328 18.9590625 -0.79722656 19.918125 -1.11132812 20.90625 C-2.8970679 26.35706157 -4.95451268 31.13802467 -8 36 C-12.875 35.125 -12.875 35.125 -14 34 C-14.09879565 32.189715 -14.12971514 30.37547273 -14.125 28.5625 C-14.12757813 27.57378906 -14.13015625 26.58507812 -14.1328125 25.56640625 C-14 23 -14 23 -13 21 C-12.97437164 19.41673702 -12.95429344 17.83338134 -12.9375 16.25 C-12.66425573 13.08492049 -12.49161102 11.52430992 -10.296875 9.18359375 C-8.89327411 8.18807682 -7.46123375 7.23147236 -6.00390625 6.31640625 C-3.43024264 4.62571495 -1.85597366 2.42704248 0 0 Z " fill="#14BAAF" transform="translate(376,409)"/>
<path d="M0 0 C4.32504836 1.65863505 7.09418825 4.871041 10.25 8.125 C10.80429687 8.68832031 11.35859375 9.25164062 11.9296875 9.83203125 C13.29104485 11.21686028 14.64614859 12.60783204 16 14 C14.71832618 16.85911853 13.50621961 19.0688791 11 21 C3.28756585 20.8756059 -3.72870885 18.4162714 -11 16 C-10.39126228 12.38870462 -8.89845341 10.2721223 -6.625 7.4375 C-6.01914062 6.67308594 -5.41328125 5.90867187 -4.7890625 5.12109375 C-3.26423966 3.31327977 -1.70452916 1.63655714 0 0 Z " fill="#FBB42C" transform="translate(281,94)"/>
<path d="M0 0 C0.66 0 1.32 0 2 0 C3.79450728 2.27990679 5.47366174 4.55763016 7.125 6.9375 C7.82689453 7.9265332 7.82689453 7.9265332 8.54296875 8.93554688 C12 13.84896593 12 13.84896593 12 15 C5.375 15.125 5.375 15.125 2 14 C-3.40749307 13.60589457 -8.04664069 13.59837124 -13 16 C-13.99 16 -14.98 16 -16 16 C-16.60709557 9.07911053 -15.44071801 6.32886161 -11 1 C-6.25 1.75 -6.25 1.75 -4 4 C-3.01 4 -2.02 4 -1 4 C-0.67 2.68 -0.34 1.36 0 0 Z " fill="#0F7A87" transform="translate(341,243)"/>
<path d="M0 0 C1.28317892 3.84953676 1.06643637 6.94738135 1 11 C2.65 11.33 4.3 11.66 6 12 C6.75 13.6875 6.75 13.6875 7 16 C4.7166465 19.38274592 1.92766691 22.16992198 -1 25 C-1.66 25.66 -2.32 26.32 -3 27 C-4.03712685 24.61009899 -5.05468019 22.21473126 -6.0625 19.8125 C-6.35705078 19.13896484 -6.65160156 18.46542969 -6.95507812 17.77148438 C-8.16775301 14.84679788 -9.00989038 12.43517688 -8.9375 9.25 C-7.7584943 6.42038632 -6.31070707 5.10866763 -3.9375 3.1875 C-3.20402344 2.58292969 -2.47054687 1.97835938 -1.71484375 1.35546875 C-1.14894531 0.90816406 -0.58304688 0.46085937 0 0 Z " fill="#117B88" transform="translate(242,258)"/>
<path d="M0 0 C0.90492188 0.82242188 1.80984375 1.64484375 2.7421875 2.4921875 C7.85466027 6.87393945 13.49694902 10.44800669 19.125 14.125 C21.2540165 15.52128639 23.38167022 16.91965339 25.5078125 18.3203125 C26.44254395 18.93148926 27.37727539 19.54266602 28.34033203 20.17236328 C31.00096149 22.0006607 33.50531776 23.9526323 36 26 C35.505 28.475 35.505 28.475 35 31 C34.51748779 30.63430908 34.03497559 30.26861816 33.5378418 29.8918457 C28.68979517 26.2343424 23.78139117 22.67862176 18.8125 19.1875 C18.08361572 18.67413086 17.35473145 18.16076172 16.60375977 17.63183594 C10.09360089 13.05248174 3.55523536 8.51456209 -3 4 C-2.01 2.68 -1.02 1.36 0 0 Z " fill="#C4CACD" transform="translate(172,244)"/>
<path d="M0 0 C2.62683741 1.01493575 3.36021476 2.14540204 4.90063477 4.48461914 C5.41859619 5.25765381 5.93655762 6.03068848 6.47021484 6.82714844 C7.01315186 7.66157471 7.55608887 8.49600098 8.11547852 9.35571289 C9.26617889 11.08250287 10.417227 12.80906117 11.56860352 14.53540039 C12.43582031 15.84782715 12.43582031 15.84782715 13.32055664 17.18676758 C15.95519298 21.1506032 18.65945281 25.06543054 21.36547852 28.98071289 C22.27851752 30.30734412 23.19130629 31.63414762 24.10375977 32.96118164 C24.74700195 33.89575195 25.39024414 34.83032227 26.05297852 35.79321289 C25.06297852 36.78321289 24.07297852 37.77321289 23.05297852 38.79321289 C21.30820034 36.2863994 19.56356249 33.77948842 17.8190918 31.27246094 C16.3476405 29.15788142 14.87596006 27.04346133 13.40405273 24.92919922 C7.15267741 15.94640463 7.15267741 15.94640463 4.05688477 11.44165039 C3.6443042 10.8418335 3.23172363 10.2420166 2.80664062 9.62402344 C1.75423754 8.09174458 0.70429268 6.55777818 -0.34545898 5.02368164 C-1.8983625 2.73390409 -1.8983625 2.73390409 -3.94702148 0.79321289 C-1.94702148 -0.20678711 -1.94702148 -0.20678711 0 0 Z " fill="#C3CBCD" transform="translate(214.947021484375,278.206787109375)"/>
<path d="M0 0 C4.07376031 1.61010527 6.76507069 4.53822271 9.75 7.625 C10.25660156 8.140625 10.76320313 8.65625 11.28515625 9.1875 C12.52803902 10.45383339 13.76465276 11.7263144 15 13 C14.01 14.98 13.02 16.96 12 19 C6.33870569 14.30233025 1.14771096 9.25276628 -4 4 C-2.68 2.68 -1.36 1.36 0 0 Z " fill="#F9F7EB" transform="translate(396,228)"/>
<path d="M0 0 C3.78995513 1.58876339 6.37175677 3.97389547 9.3125 6.8125 C10.66794922 8.09060547 10.66794922 8.09060547 12.05078125 9.39453125 C14 12 14 12 13.91796875 14.69921875 C13 17 13 17 11 19 C6.05 14.05 1.1 9.1 -4 4 C-2.68 2.68 -1.36 1.36 0 0 Z " fill="#F8F7ED" transform="translate(381,185)"/>
<path d="M0 0 C3.78995513 1.58876339 6.37175677 3.97389547 9.3125 6.8125 C10.66794922 8.09060547 10.66794922 8.09060547 12.05078125 9.39453125 C14 12 14 12 13.79296875 14.82421875 C13.53128906 15.54222656 13.26960938 16.26023437 13 17 C9 17 9 17 7.35253906 15.80664062 C6.82885742 15.26201172 6.30517578 14.71738281 5.765625 14.15625 C4.90517578 13.27646484 4.90517578 13.27646484 4.02734375 12.37890625 C3.44082031 11.75886719 2.85429687 11.13882813 2.25 10.5 C1.64800781 9.87996094 1.04601562 9.25992188 0.42578125 8.62109375 C-1.05863634 7.08955179 -2.53054345 5.54590226 -4 4 C-2.68 2.68 -1.36 1.36 0 0 Z " fill="#FEF6EB" transform="translate(243,75)"/>
<path d="M0 0 C4.80167331 0.45069858 7.00192278 2.40659794 10.375 5.75 C11.26960938 6.61109375 12.16421875 7.4721875 13.0859375 8.359375 C15 11 15 11 14.9140625 13.703125 C14 16 14 16 12 18 C7.38 13.38 2.76 8.76 -2 4 C-1.34 2.68 -0.68 1.36 0 0 Z " fill="#FEF7EE" transform="translate(285,91)"/>
<path d="M0 0 C0.99 0.66 1.98 1.32 3 2 C2.41889329 5.42754467 1.31446376 7.04538661 -1.16015625 9.453125 C-1.78857422 10.071875 -2.41699219 10.690625 -3.06445312 11.328125 C-3.72380859 11.96234375 -4.38316406 12.5965625 -5.0625 13.25 C-5.72572266 13.8996875 -6.38894531 14.549375 -7.07226562 15.21875 C-8.70829317 16.8194676 -10.35090912 18.41276193 -12 20 C-13.32 19.34 -14.64 18.68 -16 18 C-14.6415798 14.95667235 -13.11536976 12.87690849 -10.7421875 10.546875 C-10.11699219 9.928125 -9.49179688 9.309375 -8.84765625 8.671875 C-8.19667969 8.03765625 -7.54570312 7.4034375 -6.875 6.75 C-6.21628906 6.1003125 -5.55757812 5.450625 -4.87890625 4.78125 C-3.25703357 3.18288273 -1.6306719 1.58938103 0 0 Z " fill="#E9F2F4" transform="translate(171,310)"/>
<path d="M0 0 C0.556875 0.2475 1.11375 0.495 1.6875 0.75 C1.6875 1.74 1.6875 2.73 1.6875 3.75 C-3.95122419 8.79790199 -10.44450848 12.63996611 -17.3125 15.75 C-17.9725 15.09 -18.6325 14.43 -19.3125 13.75 C-19.3125 12.76 -19.3125 11.77 -19.3125 10.75 C-16.86328125 9.06640625 -16.86328125 9.06640625 -13.625 7.3125 C-10.36672214 5.53417252 -7.44508251 3.85791162 -4.5625 1.51171875 C-2.3125 -0.25 -2.3125 -0.25 0 0 Z " fill="#EDF5F6" transform="translate(244.3125,429.25)"/>
<path d="M0 0 C0.45890625 0.94101562 0.9178125 1.88203125 1.390625 2.8515625 C2.01019772 4.10948286 2.63000177 5.36728931 3.25 6.625 C3.55035156 7.24246094 3.85070312 7.85992187 4.16015625 8.49609375 C6.17042788 12.55940875 8.41131701 16.2773364 11 20 C9 22 9 22 7.1328125 22.01953125 C3.89249724 20.47058934 2.59463976 17.69850422 0.875 14.6875 C0.52824219 14.10548828 0.18148437 13.52347656 -0.17578125 12.92382812 C-5 4.76332016 -5 4.76332016 -5 1 C-2 0 -2 0 0 0 Z " fill="#EDFAF9" transform="translate(136,408)"/>
<path d="M0 0 C0.33 1.32 0.66 2.64 1 4 C-1.57143245 6.01568853 -4.1589349 8.00963165 -6.75 10 C-7.47960937 10.57234375 -8.20921875 11.1446875 -8.9609375 11.734375 C-10.02441406 12.54648437 -10.02441406 12.54648437 -11.109375 13.375 C-11.75874023 13.87773437 -12.40810547 14.38046875 -13.07714844 14.8984375 C-15 16 -15 16 -19 16 C-19 14.68 -19 13.36 -19 12 C-16.94910694 10.09729285 -15.00219484 8.50024553 -12.75 6.875 C-12.16347656 6.43285156 -11.57695312 5.99070312 -10.97265625 5.53515625 C-3.53113199 0 -3.53113199 0 0 0 Z " fill="#EEF8F8" transform="translate(301,378)"/>
<path d="M0 0 C1.32 0 2.64 0 4 0 C4 7.59 4 15.18 4 23 C2.68 23.33 1.36 23.66 0 24 C-1.1576202 21.68475961 -1.12902305 20.32883938 -1.1328125 17.75390625 C-1.13410156 16.91666016 -1.13539062 16.07941406 -1.13671875 15.21679688 C-1.13285156 14.34087891 -1.12898438 13.46496094 -1.125 12.5625 C-1.12886719 11.69044922 -1.13273437 10.81839844 -1.13671875 9.91992188 C-1.13542969 9.08138672 -1.13414063 8.24285156 -1.1328125 7.37890625 C-1.13168457 6.6113501 -1.13055664 5.84379395 -1.12939453 5.05297852 C-1 3 -1 3 0 0 Z " fill="#EEFAF9" transform="translate(127,372)"/>
<path d="M0 0 C0 1.65 0 3.3 0 5 C-7.26 6.32 -14.52 7.64 -22 9 C-22.33 7.35 -22.66 5.7 -23 4 C-15.27688233 1.43637639 -8.14229851 0 0 0 Z " fill="#EDFAF9" transform="translate(337,367)"/>
<path d="M0 0 C1.32 0.66 2.64 1.32 4 2 C-0.39497902 8.32532275 -5.45050476 13.67248457 -11 19 C-12.32 18.34 -13.64 17.68 -15 17 C-13.67879172 14.06769807 -12.25361803 12.01335101 -9.9609375 9.765625 C-9.38085938 9.19199219 -8.80078125 8.61835938 -8.203125 8.02734375 C-7.59984375 7.44082031 -6.9965625 6.85429687 -6.375 6.25 C-5.76398438 5.64800781 -5.15296875 5.04601562 -4.5234375 4.42578125 C-3.02011376 2.94594695 -1.51065144 1.47235324 0 0 Z " fill="#F1F7F8" transform="translate(270,403)"/>
<path d="M0 0 C0.33 1.32 0.66 2.64 1 4 C-6.64967323 7.92075728 -13.30742325 10.96075586 -22 11 C-22 9.35 -22 7.7 -22 6 C-21.21496094 5.81824219 -20.42992187 5.63648438 -19.62109375 5.44921875 C-12.63774062 3.81630707 -12.63774062 3.81630707 -5.9375 1.3125 C-3 0 -3 0 0 0 Z " fill="#EFF6F7" transform="translate(411,360)"/>
<path d="M0 0 C1.32 0.66 2.64 1.32 4 2 C3.32904297 3.051875 3.32904297 3.051875 2.64453125 4.125 C-0.92973257 9.73407926 -4.4845049 15.3539018 -8 21 C-9.65 20.67 -11.3 20.34 -13 20 C-11.59569884 16.16945576 -9.81548751 12.87627843 -7.625 9.4375 C-6.74714844 8.04337891 -6.74714844 8.04337891 -5.8515625 6.62109375 C-4.08667407 4.12269683 -2.22845567 2.08610939 0 0 Z " fill="#EFF8F8" transform="translate(145,338)"/>
<path d="M0 0 C4.49324849 1.65770333 8.61186146 3.84982162 12.8125 6.125 C13.50537109 6.49753906 14.19824219 6.87007813 14.91210938 7.25390625 C16.60934836 8.16690377 18.30485138 9.08312716 20 10 C19.67 11.32 19.34 12.64 19 14 C14.52824169 13.45916787 11.28772153 12.34037191 7.375 10.125 C6.45460937 9.61195313 5.53421875 9.09890625 4.5859375 8.5703125 C2.26920964 7.16347776 0.13116986 5.67091721 -2 4 C-1.34 2.68 -0.68 1.36 0 0 Z " fill="#F0FAFA" transform="translate(156,438)"/>
<path d="M0 0 C1.32 0.66 2.64 1.32 4 2 C0.81631787 9.336311 -3.80446218 14.96074237 -9 21 C-10.32 20.34 -11.64 19.68 -13 19 C-11.33567602 15.2462258 -8.98440053 12.19222602 -6.5 8.9375 C-4.2572291 5.99204276 -2.05368788 3.08053182 0 0 Z " fill="#F2F7F8" transform="translate(434,333)"/>
<path d="M0 0 C7.59 0 15.18 0 23 0 C23 1.65 23 3.3 23 5 C15.24506486 5.09928082 7.68931285 5.06059488 0 4 C0 2.68 0 1.36 0 0 Z " fill="#F5FAFA" transform="translate(352,367)"/>
<path d="M0 0 C0.99 0.66 1.98 1.32 3 2 C1.67879172 4.93230193 0.25361803 6.98664899 -2.0390625 9.234375 C-2.90917969 10.09482422 -2.90917969 10.09482422 -3.796875 10.97265625 C-4.40015625 11.55917969 -5.0034375 12.14570313 -5.625 12.75 C-6.23601562 13.35199219 -6.84703125 13.95398438 -7.4765625 14.57421875 C-8.97988624 16.05405305 -10.48934856 17.52764676 -12 19 C-13.32 18.34 -14.64 17.68 -16 17 C-14.69725731 14.09105036 -13.36041703 12.14926284 -10.99609375 10.01953125 C-10.42052734 9.49552734 -9.84496094 8.97152344 -9.25195312 8.43164062 C-8.65318359 7.89732422 -8.05441406 7.36300781 -7.4375 6.8125 C-6.83486328 6.26658203 -6.23222656 5.72066406 -5.61132812 5.15820312 C-4.07726459 3.76876511 -2.5389578 2.38401511 -1 1 C-0.67 0.67 -0.34 0.34 0 0 Z " fill="#F6FAFA" transform="translate(198,284)"/>
<path d="M0 0 C0 0.99 0 1.98 0 3 C-7.7629761 5.94397288 -14.74447081 6.34937193 -23 6 C-23 4.68 -23 3.36 -23 2 C-19.91879316 1.4660256 -16.83482141 0.95014449 -13.75 0.4375 C-12.44095703 0.21030273 -12.44095703 0.21030273 -11.10546875 -0.02148438 C-10.26113281 -0.16005859 -9.41679687 -0.29863281 -8.546875 -0.44140625 C-7.77182617 -0.57232666 -6.99677734 -0.70324707 -6.19824219 -0.83813477 C-3.88826153 -1.00822774 -2.19914787 -0.68559092 0 0 Z " fill="#F8FBFB" transform="translate(213,448)"/>
<path d="M0 0 C1.65 0.33 3.3 0.66 5 1 C3.17778624 7.61242722 0.94776396 13.80520671 -2 20 C-3.65 19.67 -5.3 19.34 -7 19 C-4.94235079 12.54646385 -2.57616518 6.2638737 0 0 Z " fill="#EEFAF9" transform="translate(448,302)"/>
<path d="M0 0 C2.75 0.8125 2.75 0.8125 3.75 1.8125 C3.79080783 3.81208364 3.79254356 5.81295254 3.75 7.8125 C2.76 8.1425 1.77 8.4725 0.75 8.8125 C0.75 7.8225 0.75 6.8325 0.75 5.8125 C-2.43234105 7.56704385 -2.43234105 7.56704385 -5.25 9.8125 C-7.92058851 9.95365161 -10.57432238 9.85497107 -13.25 9.8125 C-5.20570414 -0.30032908 -5.20570414 -0.30032908 0 0 Z " fill="#117D89" transform="translate(117.25,177.1875)"/>
<path d="M0 0 C4.43843439 1.39493652 6.9434964 3.51898201 10 7 C10.33 7.99 10.66 8.98 11 10 C9.35 10.33 7.7 10.66 6 11 C5.7525 10.38125 5.505 9.7625 5.25 9.125 C3.79371361 6.64931313 2.62187494 6.04874998 0 5 C0 3.35 0 1.7 0 0 Z " fill="#25C1B6" transform="translate(399,76)"/>
<path d="M0 0 C0.99 0.33 1.98 0.66 3 1 C2.67 3.31 2.34 5.62 2 8 C-2.19589427 9.16552619 -2.82091936 9.08954032 -7 7 C-4.69 4.69 -2.38 2.38 0 0 Z " fill="#12808B" transform="translate(258,243)"/>
<path d="M0 0 C4.85110358 4.41009417 8.348107 9.58004353 12 15 C11.01 15.33 10.02 15.66 9 16 C8.443125 15.13375 7.88625 14.2675 7.3125 13.375 C5.77374569 11.03653468 4.11624358 8.95923785 2.25 6.875 C0 4 0 4 0 0 Z " fill="#15818C" transform="translate(374,289)"/>
<path d="M0 0 C0 0.99 0 1.98 0 3 C-3.3 2.67 -6.6 2.34 -10 2 C-6.3558226 -0.4294516 -4.28758728 -0.16179575 0 0 Z " fill="#44CAC0" transform="translate(396,75)"/>
<path d="M0 0 C0.99 0 1.98 0 3 0 C2.67 3.3 2.34 6.6 2 10 C1.67 10 1.34 10 1 10 C0.67 6.7 0.34 3.4 0 0 Z " fill="#40C9BF" transform="translate(408,90)"/>
</svg>
